<svg viewBox="0 0 14 14" fill="none" xmlns="http://www.w3.org/2000/svg">
    <path d="M7 14C3.14008 14 0 10.8599 0 7C0 3.14008 3.14008 0 7 0C10.8599 0 14 3.14008 14 7C14 10.8599 10.8599 14 7 14ZM7 1.16667C3.7835 1.16667 1.16667 3.7835 1.16667 7C1.16667 10.2165 3.7835 12.8333 7 12.8333C10.2165 12.8333 12.8333 10.2165 12.8333 7C12.8333 3.7835 10.2165 1.16667 7 1.16667ZM9.91667 7C9.91667 6.84529 9.85521 6.69692 9.74581 6.58752C9.63642 6.47812 9.48804 6.41667 9.33333 6.41667H7.58333V3.5C7.58333 3.34529 7.52187 3.19692 7.41248 3.08752C7.30308 2.97812 7.15471 2.91667 7 2.91667C6.84529 2.91667 6.69692 2.97812 6.58752 3.08752C6.47812 3.19692 6.41667 3.34529 6.41667 3.5V7C6.41667 7.15471 6.47812 7.30308 6.58752 7.41248C6.69692 7.52187 6.84529 7.58333 7 7.58333H9.33333C9.48804 7.58333 9.63642 7.52187 9.74581 7.41248C9.85521 7.30308 9.91667 7.15471 9.91667 7Z" fill="#989898" />
</svg>