<svg width="120" height="120" viewBox="0 0 120 120" fill="none" xmlns="http://www.w3.org/2000/svg">
<path fill-rule="evenodd" clip-rule="evenodd" d="M93.085 47.0996C98.9031 48.2358 104.146 51.3586 107.915 55.9337C111.685 60.5087 113.747 66.2516 113.75 72.1796C113.75 86.2796 102.305 97.7246 88.205 97.7246C74.105 97.7246 62.66 86.2796 62.66 72.1796C62.66 53.3896 68.99 41.7196 76.42 34.4246C87.795 23.2546 102.04 22.2846 102.04 22.2846C102.75 22.2321 103.459 22.3827 104.086 22.719C104.713 23.0552 105.232 23.563 105.58 24.1831C105.929 24.8032 106.094 25.5097 106.056 26.2202C106.018 26.9306 105.778 27.6155 105.365 28.1946C105.365 28.1946 98.595 37.7246 94.375 44.7746C93.935 45.5146 93.49 46.3296 93.085 47.0996ZM36.675 47.0996C42.4931 48.2358 47.7355 51.3586 51.5052 55.9337C55.2749 60.5087 57.3375 66.2516 57.34 72.1796C57.34 86.2796 45.895 97.7246 31.795 97.7246C17.695 97.7246 6.25 86.2796 6.25 72.1796C6.25 53.3896 12.58 41.7196 20.01 34.4246C31.385 23.2546 45.63 22.2846 45.63 22.2846C46.3395 22.2321 47.0493 22.3827 47.6763 22.719C48.3033 23.0552 48.8215 23.563 49.1704 24.1831C49.5192 24.8031 49.6842 25.5097 49.6461 26.2202C49.608 26.9306 49.3682 27.6155 48.955 28.1946C48.955 28.1946 42.185 37.7246 37.965 44.7746C37.525 45.5146 37.08 46.3296 36.675 47.0996Z" fill="#DEDEE2"/>
</svg>
