<svg width="40" height="40" viewBox="0 0 40 40" fill="none" xmlns="http://www.w3.org/2000/svg">
<g clip-path="url(#clip0_1316_172169)">
<path d="M20 40C18.6635 40.001 17.343 39.7092 16.1313 39.1452C14.9196 38.5811 13.8463 37.7584 12.9867 36.735C10.42 37.03 7.775 36.0583 5.85833 34.1433C4.91282 33.1984 4.18562 32.0579 3.72782 30.802C3.27002 29.546 3.09271 28.2051 3.20833 26.8733C1.19 25.2667 0 22.71 0 20C0 17.29 1.19 14.7333 3.26667 12.9867C2.975 10.425 3.94167 7.775 5.85833 5.85833C6.8021 4.91164 7.94217 4.18365 9.19806 3.72575C10.454 3.26786 11.795 3.09123 13.1267 3.20833C14.7333 1.19167 17.29 0 20 0C22.71 0 25.2667 1.19 27.0133 3.265C29.5833 2.97167 32.225 3.94167 34.1417 5.85667C35.0872 6.80163 35.8144 7.94212 36.2722 9.19805C36.73 10.454 36.9073 11.7949 36.7917 13.1267C38.81 14.7333 40 17.29 40 20C40 22.71 38.81 25.2667 36.7333 27.0133C37.025 29.575 36.0583 32.225 34.1417 34.1417C33.197 35.0871 32.0568 35.8143 30.8012 36.2721C29.5455 36.7299 28.2048 36.9073 26.8733 36.7917C25.2667 38.8083 22.71 40 20 40ZM13.1217 33.46C14.0567 33.46 14.9233 33.8617 15.535 34.5867C16.6483 35.9083 18.275 36.6667 20 36.6667C21.725 36.6667 23.3517 35.9083 24.465 34.5867C25.1367 33.7883 26.115 33.385 27.1583 33.47C28.006 33.5437 28.8595 33.4311 29.6589 33.1399C30.4584 32.8487 31.1844 32.386 31.786 31.7844C32.3877 31.1827 32.8503 30.4567 33.1415 29.6573C33.4327 28.8578 33.5454 28.0043 33.4717 27.1567C33.4247 26.6505 33.5019 26.1406 33.6964 25.671C33.891 25.2014 34.1972 24.7863 34.5883 24.4617C35.2401 23.9148 35.7641 23.2318 36.1236 22.4607C36.4832 21.6896 36.6695 20.8491 36.6695 19.9983C36.6695 19.1475 36.4832 18.3071 36.1236 17.536C35.7641 16.7649 35.2401 16.0819 34.5883 15.535C34.1974 15.2102 33.8914 14.7951 33.6968 14.3255C33.5023 13.856 33.425 13.3461 33.4717 12.84C33.6183 11.1183 33.005 9.43167 31.785 8.21333C30.565 6.995 28.8717 6.38667 27.16 6.52667C26.6539 6.5747 26.1438 6.49821 25.674 6.30386C25.2043 6.10951 24.7892 5.80322 24.465 5.41167C23.3517 4.09 21.725 3.33167 20 3.33167C18.275 3.33167 16.6483 4.09 15.535 5.41167C15.2091 5.80083 14.7941 6.10557 14.3251 6.29998C13.8562 6.49439 13.3473 6.57273 12.8417 6.52833C11.994 6.45292 11.1401 6.56493 10.3405 6.85642C9.54093 7.1479 8.81528 7.61173 8.215 8.215C7.61332 8.81642 7.15056 9.54224 6.85918 10.3415C6.56781 11.1408 6.45488 11.9941 6.52833 12.8417C6.57529 13.3478 6.49814 13.8578 6.30356 14.3274C6.10899 14.797 5.80285 15.2121 5.41167 15.5367C4.75994 16.0836 4.2359 16.7666 3.87635 17.5377C3.51681 18.3087 3.33049 19.1492 3.33049 20C3.33049 20.8508 3.51681 21.6913 3.87635 22.4624C4.2359 23.2334 4.75994 23.9164 5.41167 24.4633C6.21 25.135 6.61833 26.1183 6.52833 27.1583C6.45442 28.0059 6.56713 28.8594 6.85853 29.6587C7.14993 30.4581 7.61295 31.1838 8.215 31.785C8.8173 32.385 9.54299 32.8466 10.3417 33.1379C11.1404 33.4292 11.9929 33.543 12.84 33.4717C12.935 33.4633 13.0283 33.46 13.1217 33.46ZM15 13.3333C14.558 13.3333 14.134 13.5089 13.8215 13.8215C13.5089 14.1341 13.3333 14.558 13.3333 15C13.3333 15.442 13.5089 15.866 13.8215 16.1785C14.134 16.4911 14.558 16.6667 15 16.6667C15.442 16.6667 15.8659 16.4911 16.1785 16.1785C16.4911 15.866 16.6667 15.442 16.6667 15C16.6667 14.558 16.4911 14.1341 16.1785 13.8215C15.8659 13.5089 15.442 13.3333 15 13.3333ZM25 23.3333C24.558 23.3333 24.134 23.5089 23.8215 23.8215C23.5089 24.1341 23.3333 24.558 23.3333 25C23.3333 25.442 23.5089 25.866 23.8215 26.1785C24.134 26.4911 24.558 26.6667 25 26.6667C25.442 26.6667 25.8659 26.4911 26.1785 26.1785C26.4911 25.866 26.6667 25.442 26.6667 25C26.6667 24.558 26.4911 24.1341 26.1785 23.8215C25.8659 23.5089 25.442 23.3333 25 23.3333ZM18.0533 25.925L24.72 15.925C24.8415 15.7429 24.9259 15.5387 24.9684 15.3239C25.011 15.1092 25.0108 14.8882 24.9679 14.6736C24.9251 14.4589 24.8403 14.2548 24.7186 14.0729C24.5968 13.891 24.4404 13.7348 24.2583 13.6133C24.0762 13.4919 23.872 13.4074 23.6573 13.3649C23.4425 13.3224 23.2215 13.3225 23.0069 13.3654C22.7922 13.4083 22.5881 13.493 22.4062 13.6148C22.2243 13.7365 22.0681 13.8929 21.9467 14.075L15.28 24.075C15.1585 24.2571 15.0741 24.4613 15.0316 24.6761C14.989 24.8908 14.9892 25.1118 15.0321 25.3264C15.0749 25.5411 15.1597 25.7452 15.2814 25.9271C15.4032 26.109 15.5596 26.2652 15.7417 26.3867C16.1094 26.632 16.5596 26.7212 16.9931 26.6346C17.2078 26.5917 17.4119 26.507 17.5938 26.3852C17.7757 26.2635 17.9319 26.1071 18.0533 25.925Z" fill="#242626"/>
</g>
<defs>
<clipPath id="clip0_1316_172169">
<rect width="40" height="40" fill="white"/>
</clipPath>
</defs>
</svg>
