<svg width="41" height="40" viewBox="0 0 41 40" fill="none" xmlns="http://www.w3.org/2000/svg">
<path d="M29.9592 13.1423C29.706 13.0957 29.4675 12.9898 29.2633 12.8331C29.059 12.6765 28.8948 12.4736 28.7841 12.2412C26.3263 7.06114 20.6394 4.16466 14.951 5.21303C12.4134 5.68505 10.0823 6.92601 8.27377 8.76765C6.46527 10.6093 5.26685 12.9625 4.84099 15.5083C4.58492 17.0248 4.60262 18.5748 4.89325 20.085C4.98827 20.5744 4.77764 21.1192 4.34531 21.5119C3.44781 22.3288 2.7306 23.324 2.2395 24.4338C1.7484 25.5436 1.49421 26.7437 1.49316 27.9573C1.49316 32.7589 5.40001 36.6674 10.2032 36.6674H27.6233C34.1732 36.6674 39.5006 31.34 39.5006 24.79C39.5006 19.1443 35.4877 14.2461 29.9576 13.1439L29.9592 13.1423ZM27.6249 33.4985H10.2048C7.14836 33.4985 4.66204 31.0122 4.66204 27.9557C4.66303 27.1835 4.82493 26.4199 5.1374 25.7138C5.44987 25.0076 5.90607 24.3742 6.47689 23.8541C7.72164 22.7218 8.306 21.0463 8.00194 19.4785C7.78331 18.3387 7.77044 17.1689 7.96393 16.0246C8.60214 12.189 11.7093 9.02328 15.5195 8.32489C16.1178 8.2157 16.7246 8.16058 17.3328 8.16019C19.1341 8.15108 20.9003 8.6585 22.4221 9.62234C23.944 10.5862 25.1576 11.966 25.9193 13.5984C26.2406 14.2776 26.7175 14.8714 27.3113 15.3317C27.9051 15.7921 28.599 16.1059 29.3368 16.2479C31.3088 16.647 33.0823 17.7153 34.3571 19.272C35.6318 20.8287 36.3294 22.778 36.3318 24.79C36.3318 29.5917 32.4249 33.5001 27.6217 33.5001L27.6249 33.4985ZM25.441 22.877C25.5882 23.0239 25.705 23.1985 25.7847 23.3906C25.8644 23.5827 25.9054 23.7886 25.9054 23.9966C25.9054 24.2046 25.8644 24.4106 25.7847 24.6027C25.705 24.7948 25.5882 24.9693 25.441 25.1163L21.1541 29.4032C20.5639 29.9936 19.7639 30.3261 18.9291 30.328L18.9148 30.3312L18.9006 30.328C18.0658 30.3261 17.2657 29.9936 16.6756 29.4032L12.3886 25.1163C12.2416 24.9692 12.125 24.7947 12.0454 24.6026C11.9658 24.4105 11.9249 24.2046 11.9249 23.9966C11.9249 23.7887 11.9658 23.5828 12.0454 23.3907C12.125 23.1986 12.2416 23.024 12.3886 22.877C12.5357 22.73 12.7102 22.6133 12.9023 22.5338C13.0944 22.4542 13.3003 22.4132 13.5083 22.4132C13.7162 22.4132 13.9221 22.4542 14.1142 22.5338C14.3063 22.6133 14.4809 22.73 14.6279 22.877L17.3312 25.5803V17.6621C17.3312 17.242 17.498 16.8392 17.795 16.5423C18.092 16.2453 18.4948 16.0784 18.9148 16.0784C19.3348 16.0784 19.7377 16.2453 20.0346 16.5423C20.3316 16.8392 20.4985 17.242 20.4985 17.6621V25.5803L23.2018 22.877C23.3487 22.7298 23.5232 22.613 23.7153 22.5334C23.9075 22.4537 24.1134 22.4127 24.3214 22.4127C24.5294 22.4127 24.7353 22.4537 24.9274 22.5334C25.1196 22.613 25.2941 22.7298 25.441 22.877Z" fill="#989898"/>
</svg>
