<svg xmlns="http://www.w3.org/2000/svg" width="30" height="30" viewBox="0 0 30 30" fill="none">
<g clip-path="url(#clip0_1679_6171)">
<path d="M15.17 23.8772C14.5104 23.8765 13.8708 23.6502 13.3575 23.2359C11.6062 21.8334 8.29375 18.4197 8.29375 15.5372C8.29375 13.1722 10.1163 11.2497 12.3563 11.2497C13.4688 11.2497 14.45 11.6472 15.1688 12.3147C15.8875 11.6484 16.8687 11.2497 17.9813 11.2497C20.2213 11.2497 22.0438 13.1734 22.0438 15.5372C22.0438 18.4209 18.7325 21.8347 16.9813 23.2372C16.4683 23.6512 15.8292 23.8762 15.17 23.8772ZM12.3563 13.7484C11.495 13.7484 10.7938 14.5509 10.7938 15.5359C10.7938 17.1309 13.19 19.8984 14.92 21.2834C14.9898 21.3422 15.0781 21.3743 15.1694 21.3743C15.2606 21.3743 15.3489 21.3422 15.4187 21.2834C17.1488 19.8984 19.5438 17.1309 19.5438 15.5347C19.5438 14.5484 18.8425 13.7472 17.9813 13.7472C17.2038 13.7472 16.4188 14.2147 16.4188 15.2584C16.4188 15.59 16.2871 15.9079 16.0526 16.1423C15.8182 16.3767 15.5003 16.5084 15.1688 16.5084C14.8372 16.5084 14.5193 16.3767 14.2849 16.1423C14.0504 15.9079 13.9188 15.59 13.9188 15.2584C13.9188 14.1422 13.0763 13.7472 12.3563 13.7472V13.7484ZM23.75 29.9984H6.25C2.80375 29.9984 0 27.1947 0 23.7484V12.1534C0 10.0734 1.02875 8.13719 2.75375 6.97219L11.5037 1.06719C12.5354 0.366698 13.7536 -0.0078125 15.0006 -0.0078125C16.2476 -0.0078125 17.4659 0.366698 18.4975 1.06719L27.2475 6.97094C28.0957 7.5429 28.7904 8.31457 29.2704 9.21805C29.7503 10.1215 30.0009 11.1291 30 12.1522V23.7472C30 27.1934 27.1963 29.9984 23.75 29.9984ZM15.0013 2.49594C14.27 2.49594 13.54 2.71094 12.9025 3.14094L4.1525 9.04469C3.64334 9.38772 3.22632 9.85067 2.93816 10.3928C2.65 10.9349 2.49953 11.5395 2.5 12.1534V23.7484C2.5 25.8159 4.1825 27.4984 6.25 27.4984H23.75C25.8175 27.4984 27.5 25.8159 27.5 23.7484V12.1534C27.5 10.9047 26.8825 9.74219 25.8488 9.04469L17.0987 3.14094C16.4797 2.72132 15.7491 2.49668 15.0013 2.49594Z" fill="#242626"/>
</g>
<defs>
<clipPath id="clip0_1679_6171">
<rect width="30" height="30" fill="white"/>
</clipPath>
</defs>
</svg>