<svg xmlns="http://www.w3.org/2000/svg" width="60" height="60" viewBox="0 0 60 60" fill="none">
<path d="M29.8925 57.5164L28.2945 56.1466C26.0915 54.3019 6.85547 37.689 6.85547 25.5371C6.85547 12.8141 17.1695 2.5 29.8925 2.5C42.6155 2.5 52.9296 12.8141 52.9296 25.5371C52.9296 37.6891 33.6936 54.302 31.4997 56.1557L29.8925 57.5164ZM29.8925 7.48129C19.9253 7.49257 11.8481 15.5698 11.8369 25.537C11.8369 33.1711 23.6716 45.3665 29.8925 50.9482C36.1136 45.3642 47.9482 33.1619 47.9482 25.537C47.9369 15.5698 39.8598 7.49268 29.8925 7.48129Z" fill="#242626"/>
<path d="M29.8963 34.6716C24.8531 34.6716 20.7646 30.5832 20.7646 25.5399C20.7646 20.4966 24.8531 16.4082 29.8963 16.4082C34.9396 16.4082 39.028 20.4966 39.028 25.5399C39.028 30.5832 34.9397 34.6716 29.8963 34.6716ZM29.8963 20.9739C27.3747 20.9739 25.3305 23.0181 25.3305 25.5398C25.3305 28.0614 27.3747 30.1056 29.8963 30.1056C32.418 30.1056 34.4622 28.0614 34.4622 25.5398C34.4622 23.0181 32.4181 20.9739 29.8963 20.9739Z" fill="#242626"/>
</svg>