<svg xmlns="http://www.w3.org/2000/svg" viewBox="0 0 24 24">
    <path d="M20 14H10V4C10 1.794 8.206 0 6 0H4C1.794 0 0 1.794 0 4V19C0 21.757 2.243 24 5 24H20C22.206 24 24 22.206 24 20V18C24 15.794 22.206 14 20 14ZM22 20C22 21.103 21.103 22 20 22H5C3.346 22 2 20.654 2 19V4C2 2.897 2.897 2 4 2H6C7.103 2 8 2.897 8 4V6H6C5.73478 6 5.48043 6.10536 5.29289 6.29289C5.10536 6.48043 5 6.73478 5 7C5 7.26522 5.10536 7.51957 5.29289 7.70711C5.48043 7.89464 5.73478 8 6 8H8V10H6C5.73478 10 5.48043 10.1054 5.29289 10.2929C5.10536 10.4804 5 10.7348 5 11C5 11.2652 5.10536 11.5196 5.29289 11.7071C5.48043 11.8946 5.73478 12 6 12H8V14H6C5.73478 14 5.48043 14.1054 5.29289 14.2929C5.10536 14.4804 5 14.7348 5 15C5 15.2652 5.10536 15.5196 5.29289 15.7071C5.48043 15.8946 5.73478 16 6 16H8V18C8 18.2652 8.10536 18.5196 8.29289 18.7071C8.48043 18.8946 8.73478 19 9 19C9.26522 19 9.51957 18.8946 9.70711 18.7071C9.89464 18.5196 10 18.2652 10 18V16H12V18C12 18.2652 12.1054 18.5196 12.2929 18.7071C12.4804 18.8946 12.7348 19 13 19C13.2652 19 13.5196 18.8946 13.7071 18.7071C13.8946 18.5196 14 18.2652 14 18V16H16V18C16 18.2652 16.1054 18.5196 16.2929 18.7071C16.4804 18.8946 16.7348 19 17 19C17.2652 19 17.5196 18.8946 17.7071 18.7071C17.8946 18.5196 18 18.2652 18 18V16H20C21.103 16 22 16.897 22 18V20Z" fill="#242626"/>
</svg>