<svg  xmlns="http://www.w3.org/2000/svg" xmlns:xlink="http://www.w3.org/1999/xlink" viewBox="0 0 300 300">
    <style>:root>svg{display:none}:root>svg:target{display:block}</style>
    <svg id="logo" xmlns="http://www.w3.org/2000/svg" viewBox="0 0 197 88">
        <path d="M20.7042 72.1683L20.1026 72.5408C19.584 71.8579 18.8994 71.5267 18.0073 71.5267C17.302 71.5267 16.7211 71.7544 16.2439 72.2097C15.7668 72.665 15.5386 73.2238 15.5386 73.8861C15.5386 74.3207 15.6423 74.7139 15.8705 75.0865C16.078 75.459 16.3892 75.7487 16.7626 75.9557C17.136 76.1627 17.5509 76.2661 18.0281 76.2661C18.8786 76.2661 19.584 75.935 20.1234 75.252L20.725 75.6453C20.4553 76.0592 20.0819 76.3903 19.6047 76.618C19.1276 76.8456 18.6089 76.9698 18.0073 76.9698C17.0945 76.9698 16.3269 76.6801 15.7253 76.1006C15.1237 75.5211 14.8125 74.7967 14.8125 73.9689C14.8125 73.4101 14.9577 72.872 15.2274 72.396C15.5179 71.9199 15.8913 71.5267 16.3892 71.2577C16.8871 70.9886 17.4472 70.8438 18.0488 70.8438C18.443 70.8438 18.7957 70.9058 19.1691 71.03C19.5217 71.1542 19.8329 71.2991 20.0819 71.4853C20.3101 71.6302 20.5175 71.8579 20.7042 72.1683Z"/>
        <path d="M21.8672 70.9492H25.6844V71.5908H24.1492V76.7855H23.4024V71.5908H21.8672V70.9492Z"/>
        <path d="M26.8242 70.9492H27.6126L29.6041 75.4403L31.5542 70.9492H32.3425L28.878 78.9172H28.0897L29.21 76.3509L26.8242 70.9492Z"/>
        <path d="M33.1323 76.144L35.3729 70.9492H35.767L38.0076 76.144H38.7129V77.5306H37.9661V76.7855H33.1531V77.572H32.4062V76.1646H33.1323V76.144ZM35.5596 72.1082L33.8584 76.144H37.1985L35.5596 72.1082Z"/>
        <path d="M40.8706 70.9492V75.2747L45.1442 70.9492H45.2065V76.7855H44.4596V72.5014L40.2275 76.7855H40.1445V70.9492H40.8706Z"/>
        <path d="M49.7464 74.1778H49.207L47.5474 76.7855H46.7383L48.4809 74.095C48.0453 74.0329 47.6926 73.8674 47.4229 73.5983C47.1532 73.3293 47.008 72.9774 47.008 72.5635C47.008 72.0461 47.1739 71.6529 47.4851 71.3631C47.7963 71.0734 48.2112 70.9492 48.7091 70.9492H50.4725V76.7855H49.7256V74.1778H49.7464ZM49.7464 71.5908H49.2485C48.7713 71.5908 48.4602 71.6115 48.2942 71.6736C48.1282 71.7357 48.0038 71.8392 47.9 71.984C47.7963 72.1289 47.7548 72.3359 47.7548 72.5842C47.7548 72.8326 47.8171 73.0188 47.9415 73.1844C48.066 73.3293 48.2112 73.4328 48.3564 73.4742C48.5017 73.5155 48.8128 73.5362 49.2485 73.5362H49.7464V71.5908Z"/>
        <path d="M60.454 68.6914H61.2009V71.8165C61.678 71.1543 62.3419 70.8231 63.2132 70.8231C64.0638 70.8231 64.7691 71.1129 65.3292 71.6923C65.9101 72.2718 66.1798 72.9962 66.1798 73.9068C66.1798 74.7968 65.8894 75.5211 65.3085 76.1006C64.7276 76.6801 64.043 76.9492 63.2132 76.9492C62.3211 76.9492 61.6365 76.5973 61.1801 75.8937V78.8946H60.4333V75.8937C59.9769 76.5973 59.2923 76.9492 58.3795 76.9492C57.5704 76.9492 56.8858 76.6594 56.3049 76.1006C55.724 75.5211 55.4336 74.7968 55.4336 73.9068C55.4336 72.9962 55.724 72.2718 56.2842 71.6923C56.865 71.1129 57.5704 70.8231 58.4002 70.8231C59.2923 70.8231 59.9561 71.1543 60.4125 71.8165V68.6914H60.454ZM56.2219 73.8654C56.2219 74.507 56.4294 75.0658 56.8443 75.5418C57.2592 75.9971 57.8193 76.2455 58.5247 76.2455C58.7736 76.2455 59.0226 76.1834 59.313 76.0592C59.5827 75.9351 59.8109 75.7902 59.9769 75.5832C60.1428 75.397 60.2673 75.1693 60.3503 74.9416C60.4333 74.6933 60.4748 74.3415 60.4748 73.8654C60.4748 73.0997 60.2881 72.5202 59.8939 72.127C59.4997 71.7337 59.0226 71.5268 58.4832 71.5268C57.8608 71.5268 57.3214 71.7544 56.8858 72.1891C56.4501 72.6237 56.2219 73.1825 56.2219 73.8654ZM61.1801 74.0103C61.1801 74.714 61.3876 75.2521 61.7817 75.6453C62.1759 76.0385 62.6323 76.2455 63.151 76.2455C63.8563 76.2455 64.4164 76.0178 64.8313 75.5418C65.2463 75.0865 65.4537 74.5277 65.4537 73.8654C65.4537 73.1825 65.2255 72.6237 64.7899 72.1891C64.3542 71.7337 63.8148 71.5268 63.1924 71.5268C62.6323 71.5268 62.1552 71.7337 61.7817 72.127C61.3876 72.4995 61.1801 73.1411 61.1801 74.0103Z"/>
        <path d="M67.8398 70.9457H68.5867V72.0219C68.8771 71.6079 69.2298 71.3182 69.6032 71.1112C69.9974 70.9043 70.4123 70.8008 70.8894 70.8008C71.7193 70.8008 72.4246 71.0905 73.0055 71.6907C73.5864 72.2909 73.8768 73.0153 73.8768 73.8431C73.8768 74.6917 73.5864 75.4367 73.0055 76.0369C72.4246 76.6371 71.7193 76.9268 70.8894 76.9268C70.433 76.9268 69.9974 76.8234 69.6032 76.6371C69.209 76.4508 68.8564 76.1611 68.5452 75.7679V78.9137H67.8398V70.9457ZM70.8272 71.5252C70.1841 71.5252 69.6447 71.7528 69.1883 72.2081C68.7526 72.6634 68.5244 73.2222 68.5244 73.9052C68.5244 74.3398 68.6282 74.7537 68.8149 75.1056C69.0223 75.4574 69.292 75.7472 69.6655 75.9541C70.0389 76.1611 70.4123 76.2646 70.8272 76.2646C71.2214 76.2646 71.6155 76.1611 71.9682 75.9541C72.3209 75.7472 72.6113 75.4574 72.8188 75.0849C73.0262 74.7124 73.13 74.3191 73.13 73.9052C73.13 73.4913 73.0262 73.0981 72.8188 72.7255C72.6113 72.353 72.3209 72.0633 71.989 71.8563C71.6363 71.6286 71.2421 71.5252 70.8272 71.5252Z"/>
        <path d="M80.577 74.8365L81.1994 75.1677C80.9919 75.5816 80.7637 75.9127 80.4733 76.1611C80.2036 76.4094 79.8924 76.5957 79.5605 76.7406C79.2286 76.8648 78.8344 76.9268 78.4195 76.9268C77.4652 76.9268 76.7391 76.6164 76.1997 75.9955C75.6603 75.3746 75.3906 74.671 75.3906 73.8845C75.3906 73.1394 75.6188 72.4772 76.0752 71.8977C76.6561 71.1526 77.4237 70.8008 78.378 70.8008C79.3738 70.8008 80.1621 71.1733 80.7637 71.9391C81.1786 72.4772 81.4068 73.1394 81.4068 73.9259H76.179C76.1997 74.6089 76.4072 75.1677 76.8221 75.6023C77.237 76.0369 77.7556 76.2439 78.378 76.2439C78.6684 76.2439 78.9589 76.2025 79.2493 76.099C79.519 75.9955 79.7679 75.8506 79.9547 75.6851C80.1414 75.4988 80.3488 75.2298 80.577 74.8365ZM80.577 73.2843C80.4733 72.8911 80.3281 72.56 80.1414 72.3323C79.9547 72.0839 79.7057 71.8977 79.3945 71.7528C79.0833 71.6079 78.7514 71.5252 78.3987 71.5252C77.8386 71.5252 77.3407 71.7114 76.9258 72.0839C76.6354 72.353 76.4072 72.7462 76.2412 73.2843H80.577Z"/>
        <path d="M88.8136 72.1683L88.212 72.5408C87.6934 71.8579 87.0087 71.5267 86.1167 71.5267C85.4113 71.5267 84.8305 71.7544 84.3533 72.2097C83.8762 72.665 83.648 73.2238 83.648 73.8861C83.648 74.3207 83.7517 74.7139 83.9799 75.0865C84.1874 75.459 84.4985 75.7487 84.872 75.9557C85.2454 76.1627 85.6603 76.2661 86.1374 76.2661C86.988 76.2661 87.6934 75.935 88.2327 75.252L88.8344 75.6453C88.5647 76.0592 88.1912 76.3903 87.7141 76.618C87.2369 76.8456 86.7183 76.9698 86.1167 76.9698C85.2039 76.9698 84.4363 76.6801 83.8347 76.1006C83.2331 75.5211 82.9219 74.7967 82.9219 73.9689C82.9219 73.4101 83.0671 72.872 83.3368 72.396C83.6272 71.9199 84.0006 71.5267 84.4985 71.2577C84.9964 70.9886 85.5566 70.8438 86.1582 70.8438C86.5523 70.8438 86.905 70.9058 87.2784 71.03C87.6311 71.1542 87.9423 71.2991 88.1912 71.4853C88.4194 71.6302 88.6477 71.8579 88.8136 72.1683Z"/>
        <path d="M93.189 70.8008C94.0811 70.8008 94.8279 71.1319 95.4088 71.7735C95.9482 72.3737 96.2179 73.0774 96.2179 73.8845C96.2179 74.6917 95.9274 75.416 95.3673 76.0162C94.8072 76.6164 94.0811 76.9268 93.189 76.9268C92.2969 76.9268 91.5709 76.6164 91.0107 76.0162C90.4506 75.416 90.1602 74.6917 90.1602 73.8845C90.1602 73.0774 90.4298 72.3737 90.9692 71.7735C91.5294 71.1319 92.2762 70.8008 93.189 70.8008ZM93.1683 71.5252C92.5459 71.5252 92.0065 71.7528 91.5709 72.2081C91.1145 72.6634 90.907 73.2222 90.907 73.8845C90.907 74.2984 91.0107 74.6917 91.2182 75.0642C91.4256 75.4367 91.6953 75.7058 92.048 75.9127C92.4007 76.1197 92.7741 76.2025 93.189 76.2025C93.6039 76.2025 93.9773 76.099 94.33 75.9127C94.6827 75.7058 94.9524 75.4367 95.1598 75.0642C95.3673 74.6917 95.471 74.2984 95.471 73.8845C95.471 73.2222 95.2428 72.6634 94.8072 72.2081C94.33 71.7528 93.7906 71.5252 93.1683 71.5252Z"/>
        <path d="M98.0039 70.9492H98.7507V73.4121L101.448 70.9492H102.485L99.5391 73.619L102.713 76.7855H101.655L98.9789 74.095L98.7507 74.302V76.7855H98.0039V70.9492Z"/>
        <path d="M107.816 70.9492V75.2747L112.09 70.9492H112.152V76.7855H111.405V72.5014L107.173 76.7855H107.09V70.9492H107.816Z"/>
        <path d="M122.11 68.6914H122.857V71.8165C123.334 71.1543 123.998 70.8231 124.869 70.8231C125.72 70.8231 126.425 71.1129 126.985 71.6923C127.566 72.2718 127.836 72.9962 127.836 73.9068C127.836 74.7968 127.546 75.5211 126.965 76.1006C126.384 76.6801 125.699 76.9492 124.869 76.9492C123.977 76.9492 123.293 76.5973 122.836 75.8937V78.8946H122.09V75.8937C121.633 76.5973 120.949 76.9492 120.036 76.9492C119.227 76.9492 118.542 76.6594 117.961 76.1006C117.38 75.5211 117.09 74.7968 117.09 73.9068C117.09 72.9962 117.38 72.2718 117.94 71.6923C118.521 71.1129 119.227 70.8231 120.056 70.8231C120.949 70.8231 121.612 71.1543 122.069 71.8165V68.6914H122.11ZM117.878 73.8654C117.878 74.507 118.086 75.0658 118.501 75.5418C118.915 75.9971 119.476 76.2455 120.181 76.2455C120.43 76.2455 120.679 76.1834 120.969 76.0592C121.239 75.9351 121.467 75.7902 121.633 75.5832C121.799 75.397 121.924 75.1693 122.007 74.9416C122.09 74.6933 122.131 74.3415 122.131 73.8654C122.131 73.0997 121.944 72.5202 121.55 72.127C121.156 71.7337 120.679 71.5268 120.139 71.5268C119.517 71.5268 118.978 71.7544 118.542 72.1891C118.106 72.6237 117.878 73.1825 117.878 73.8654ZM122.836 74.0103C122.836 74.714 123.044 75.2521 123.438 75.6453C123.832 76.0385 124.289 76.2455 124.807 76.2455C125.513 76.2455 126.073 76.0178 126.488 75.5418C126.903 75.0865 127.11 74.5277 127.11 73.8654C127.11 73.1825 126.882 72.6237 126.446 72.1891C126.01 71.7337 125.471 71.5268 124.849 71.5268C124.289 71.5268 123.811 71.7337 123.438 72.127C123.044 72.4995 122.836 73.1411 122.836 74.0103Z"/>
        <path d="M132.377 70.8008C133.269 70.8008 134.015 71.1319 134.596 71.7735C135.136 72.3737 135.405 73.0774 135.405 73.8845C135.405 74.6917 135.115 75.416 134.555 76.0162C133.995 76.6164 133.269 76.9268 132.377 76.9268C131.484 76.9268 130.758 76.6164 130.198 76.0162C129.638 75.416 129.348 74.6917 129.348 73.8845C129.348 73.0774 129.617 72.3737 130.157 71.7735C130.738 71.1319 131.484 70.8008 132.377 70.8008ZM132.377 71.5252C131.754 71.5252 131.215 71.7528 130.779 72.2081C130.323 72.6634 130.115 73.2222 130.115 73.8845C130.115 74.2984 130.219 74.6917 130.426 75.0642C130.634 75.4367 130.904 75.7058 131.256 75.9127C131.609 76.1197 131.982 76.2025 132.397 76.2025C132.812 76.2025 133.186 76.099 133.538 75.9127C133.891 75.7058 134.161 75.4367 134.368 75.0642C134.576 74.6917 134.679 74.2984 134.679 73.8845C134.679 73.2222 134.451 72.6634 134.015 72.2081C133.538 71.7528 132.999 71.5252 132.377 71.5252Z"/>
        <path d="M136.297 70.9492H140.114V71.5908H138.579V76.7855H137.832V71.5908H136.297V70.9492Z"/>
        <path d="M144.056 70.8008C144.948 70.8008 145.695 71.1319 146.276 71.7735C146.815 72.3737 147.085 73.0774 147.085 73.8845C147.085 74.6917 146.795 75.416 146.234 76.0162C145.674 76.6164 144.948 76.9268 144.056 76.9268C143.164 76.9268 142.438 76.6164 141.878 76.0162C141.318 75.416 141.027 74.6917 141.027 73.8845C141.027 73.0774 141.297 72.3737 141.836 71.7735C142.397 71.1319 143.143 70.8008 144.056 70.8008ZM144.035 71.5252C143.413 71.5252 142.874 71.7528 142.438 72.2081C141.982 72.6634 141.774 73.2222 141.774 73.8845C141.774 74.2984 141.878 74.6917 142.085 75.0642C142.293 75.4367 142.563 75.7058 142.915 75.9127C143.268 76.1197 143.641 76.2025 144.056 76.2025C144.471 76.2025 144.845 76.099 145.197 75.9127C145.55 75.7058 145.82 75.4367 146.027 75.0642C146.234 74.6917 146.338 74.2984 146.338 73.8845C146.338 73.2222 146.11 72.6634 145.674 72.2081C145.197 71.7528 144.658 71.5252 144.035 71.5252Z"/>
        <path d="M148.871 70.9492H153.746V76.7855H152.999V71.6529H149.618V76.7855H148.871V70.9492Z"/>
        <path d="M161.61 70.9484V76.7847H160.863V75.7913C160.552 76.1638 160.199 76.4536 159.805 76.6605C159.411 76.8468 158.996 76.9503 158.519 76.9503C157.689 76.9503 156.983 76.6605 156.403 76.0603C155.822 75.4602 155.531 74.7358 155.531 73.8665C155.531 73.018 155.822 72.3143 156.423 71.7142C157.025 71.114 157.71 70.8242 158.539 70.8242C159.017 70.8242 159.452 70.9277 159.826 71.1347C160.22 71.3416 160.552 71.6521 160.842 72.0453V70.9691H161.61V70.9484ZM158.622 71.5279C158.207 71.5279 157.813 71.6314 157.461 71.8383C157.108 72.0453 156.838 72.335 156.61 72.7076C156.403 73.0801 156.299 73.4733 156.299 73.8872C156.299 74.3012 156.403 74.6944 156.61 75.0669C156.817 75.4395 157.108 75.7292 157.461 75.9362C157.813 76.1431 158.187 76.2466 158.602 76.2466C159.016 76.2466 159.39 76.1431 159.763 75.9362C160.137 75.7292 160.406 75.4395 160.614 75.0876C160.821 74.7358 160.904 74.3426 160.904 73.8872C160.904 73.2043 160.676 72.6455 160.24 72.1902C159.805 71.7555 159.265 71.5279 158.622 71.5279Z"/>
        <path d="M167.851 73.9709H164.469V76.7855H163.723V70.9492H164.469V73.2672H167.851V70.9492H168.598V76.7855H167.851V73.9709Z"/>
        <path d="M174.843 73.9709H171.462V76.7855H170.715V70.9492H171.462V73.2672H174.843V70.9492H175.59V76.7855H174.843V73.9709Z"/>
        <path d="M180.423 70.8008C181.315 70.8008 182.062 71.1319 182.643 71.7735C183.183 72.3737 183.452 73.0774 183.452 73.8845C183.452 74.6917 183.162 75.416 182.602 76.0162C182.042 76.6164 181.315 76.9268 180.423 76.9268C179.531 76.9268 178.805 76.6164 178.245 76.0162C177.685 75.416 177.395 74.6917 177.395 73.8845C177.395 73.0774 177.664 72.3737 178.204 71.7735C178.784 71.1319 179.531 70.8008 180.423 70.8008ZM180.423 71.5252C179.801 71.5252 179.262 71.7528 178.826 72.2081C178.37 72.6634 178.162 73.2222 178.162 73.8845C178.162 74.2984 178.266 74.6917 178.473 75.0642C178.681 75.4367 178.95 75.7058 179.303 75.9127C179.656 76.1197 180.029 76.2025 180.444 76.2025C180.859 76.2025 181.232 76.099 181.585 75.9127C181.938 75.7058 182.208 75.4367 182.415 75.0642C182.622 74.6917 182.726 74.2984 182.726 73.8845C182.726 73.2222 182.498 72.6634 182.062 72.2081C181.564 71.7528 181.046 71.5252 180.423 71.5252Z"/>
        <path d="M20.3913 63.7018H42.3193V65.0471H15.3086V18.1289H20.3913V63.7018ZM26.6149 57.7827L32.8801 18.1289H35.1206L43.1699 57.7827H38.5436L36.1579 46.2343H29.8098L27.9634 57.7827H26.6149ZM35.9919 44.9718L33.212 30.6087L32.8801 27.9182H32.4237L32.2162 30.6087L30.038 44.9718H35.9919Z"/>
        <path d="M57.9804 27.525C57.9804 21.7507 62.0051 18.1289 68.3532 18.1289H96.1523V19.4742H88.2897V65.0471H83.207V19.4742H68.8719C64.9094 19.4742 62.5859 21.6886 62.5859 25.4553C62.5859 27.3387 63.1876 29.6153 64.2456 31.8298L73.6226 51.2841C74.5561 53.2296 75.0125 55.175 75.0125 56.9135C75.0125 61.9426 70.9879 65.5645 65.3659 65.5645C62.5859 65.5645 59.6193 64.6952 57.0469 63.0188L57.773 61.8185C60.0757 63.2258 62.6689 64.0329 64.702 64.0329C68.0005 64.0329 70.0544 61.8806 70.0544 58.3208C70.0544 56.3133 69.3905 54.1609 68.0005 51.2013L59.806 34.6237C58.6443 32.2851 57.9804 29.8015 57.9804 27.525Z"/>
        <path d="M102.417 18.1289H104.928L115.238 65.0471H109.948L106.836 50.8909H98.2476L95.7996 65.0471H94.2852L102.417 18.1289ZM101.546 31.1468L98.4343 49.4629H106.567L102.729 31.1468L102.334 28.4563H101.878L101.546 31.1468Z"/>
        <path d="M135.178 50.477L135.966 53.1675H136.423L136.215 50.477V18.1289H137.668V65.0471H135.157L121.279 24.5861L120.49 21.8956H120.034L120.241 24.5861V65.0471H118.789V18.1289H124.328L135.178 50.477Z"/>
        <path d="M144.491 19.4742V18.1289H162.249V19.4742L147.727 63.6397H163.245V65.0471H142.375V63.6397L156.897 19.4742H144.491Z"/>
        <path d="M171.109 18.1289H173.619L183.93 65.0471H178.639L175.528 50.8909H166.939L164.491 65.0471H162.977L171.109 18.1289ZM170.238 31.1468L167.126 49.4629H175.258L171.42 31.1468L171.026 28.4563H170.569L170.238 31.1468Z"/>
    </svg>
    <svg id="address" xmlns="http://www.w3.org/2000/svg" viewBox="0 0 24 24">
        <path d="M11.9592 24.0065L11.2621 23.409C10.3011 22.6044 1.91016 15.3576 1.91016 10.0568C1.91016 4.50692 6.40927 0.0078125 11.9592 0.0078125C17.5091 0.0078125 22.0082 4.50692 22.0082 10.0568C22.0082 15.3577 13.6172 22.6044 12.6602 23.413L11.9592 24.0065ZM11.9592 2.1807C7.61137 2.18563 4.08802 5.70898 4.08309 10.0568C4.08309 13.3869 9.24553 18.7066 11.9592 21.1415C14.6729 18.7056 19.8352 13.3828 19.8352 10.0568C19.8303 5.70898 16.307 2.18567 11.9592 2.1807Z"/>
        <path d="M11.9599 14.0409C9.75997 14.0409 7.97656 12.2575 7.97656 10.0576C7.97656 7.85762 9.75997 6.07422 11.9599 6.07422C14.1598 6.07422 15.9432 7.85762 15.9432 10.0576C15.9432 12.2575 14.1599 14.0409 11.9599 14.0409ZM11.9599 8.06584C10.8599 8.06584 9.96823 8.95755 9.96823 10.0575C9.96823 11.1575 10.8599 12.0492 11.9599 12.0492C13.0599 12.0492 13.9516 11.1575 13.9516 10.0575C13.9516 8.95755 13.0599 8.06584 11.9599 8.06584Z"/>
    </svg>
    <svg id="phone" xmlns="http://www.w3.org/2000/svg" viewBox="0 0 24 24">
        <path d="M22.1699 1.8215L21.1199 0.911501C20.8324 0.623772 20.491 0.395521 20.1153 0.239791C19.7395 0.0840614 19.3367 0.00390625 18.9299 0.00390625C18.5232 0.00390625 18.1204 0.0840614 17.7446 0.239791C17.3689 0.395521 17.0275 0.623772 16.7399 0.911501C16.7099 0.941501 14.8599 3.3515 14.8599 3.3515C14.3111 3.92883 14.0051 4.69494 14.0051 5.4915C14.0051 6.28806 14.3111 7.05418 14.8599 7.6315L16.0199 9.0915C14.5599 12.4015 12.2899 14.6815 9.08994 16.0415L7.62994 14.8715C7.05497 14.3181 6.28797 14.009 5.48994 14.009C4.69192 14.009 3.92492 14.3181 3.34994 14.8715C3.34994 14.8715 0.939943 16.7215 0.909943 16.7515C-0.300057 17.9615 -0.300057 19.9215 0.859943 21.0815L1.85994 22.2315C3.00994 23.3815 4.55994 24.0115 6.23994 24.0115C13.8799 24.0115 23.9999 13.8815 23.9999 6.2515C23.9999 4.5815 23.3699 3.0215 22.1699 1.8315V1.8215ZM6.23994 22.0015C5.09994 22.0015 4.04994 21.5815 3.32994 20.8515L2.32994 19.7015C2.13177 19.5025 2.01722 19.2352 2.00978 18.9545C2.00235 18.6737 2.10258 18.4007 2.28994 18.1915C2.28994 18.1915 4.67994 16.3515 4.70994 16.3215C5.11994 15.9115 5.83994 15.9115 6.25994 16.3215C6.28994 16.3515 8.29994 17.9615 8.29994 17.9615C8.57994 18.1815 8.94994 18.2415 9.27994 18.1115C13.4199 16.5315 16.3899 13.5715 18.0999 9.3015C18.2299 8.9715 18.1799 8.5915 17.9499 8.3015C17.9499 8.3015 16.3399 6.2815 16.3199 6.2615C15.8899 5.8315 15.8899 5.1415 16.3199 4.7115C16.3499 4.6815 18.1899 2.2915 18.1899 2.2915C18.6199 1.9015 19.2899 1.9115 19.7499 2.3715L20.7999 3.2815C21.5699 4.0515 21.9999 5.1015 21.9999 6.2415C21.9999 13.2015 12.2299 22.0015 6.23994 22.0015Z"/>
    </svg>
    <svg id="mail" xmlns="http://www.w3.org/2000/svg" viewBox="0 0 24 24">
        <path d="M19 1H5C3.67441 1.00159 2.40356 1.52888 1.46622 2.46622C0.528882 3.40356 0.00158786 4.67441 0 6L0 18C0.00158786 19.3256 0.528882 20.5964 1.46622 21.5338C2.40356 22.4711 3.67441 22.9984 5 23H19C20.3256 22.9984 21.5964 22.4711 22.5338 21.5338C23.4711 20.5964 23.9984 19.3256 24 18V6C23.9984 4.67441 23.4711 3.40356 22.5338 2.46622C21.5964 1.52888 20.3256 1.00159 19 1ZM5 3H19C19.5988 3.00118 20.1835 3.18151 20.679 3.5178C21.1744 3.85409 21.5579 4.33095 21.78 4.887L14.122 12.546C13.5584 13.1073 12.7954 13.4225 12 13.4225C11.2046 13.4225 10.4416 13.1073 9.878 12.546L2.22 4.887C2.44215 4.33095 2.82561 3.85409 3.32105 3.5178C3.81648 3.18151 4.40121 3.00118 5 3ZM19 21H5C4.20435 21 3.44129 20.6839 2.87868 20.1213C2.31607 19.5587 2 18.7956 2 18V7.5L8.464 13.96C9.40263 14.8963 10.6743 15.422 12 15.422C13.3257 15.422 14.5974 14.8963 15.536 13.96L22 7.5V18C22 18.7956 21.6839 19.5587 21.1213 20.1213C20.5587 20.6839 19.7956 21 19 21Z"/>
    </svg>
    <svg id="print" xmlns="http://www.w3.org/2000/svg" viewBox="0 0 30 30">
        <g clip-path="url(#clip0_2376_30646)">
        <path d="M23.75 7.5V5C23.75 3.67392 23.2232 2.40215 22.2855 1.46447C21.3479 0.526784 20.0761 0 18.75 0L11.25 0C9.92392 0 8.65215 0.526784 7.71447 1.46447C6.77678 2.40215 6.25 3.67392 6.25 5V7.5C4.59301 7.50198 3.00445 8.1611 1.83277 9.33278C0.661102 10.5044 0.00198482 12.093 0 13.75L0 20C0.00198482 21.657 0.661102 23.2456 1.83277 24.4172C3.00445 25.5889 4.59301 26.248 6.25 26.25C6.25 27.2446 6.64509 28.1984 7.34835 28.9017C8.05161 29.6049 9.00544 30 10 30H20C20.9946 30 21.9484 29.6049 22.6517 28.9017C23.3549 28.1984 23.75 27.2446 23.75 26.25C25.407 26.248 26.9956 25.5889 28.1672 24.4172C29.3389 23.2456 29.998 21.657 30 20V13.75C29.998 12.093 29.3389 10.5044 28.1672 9.33278C26.9956 8.1611 25.407 7.50198 23.75 7.5ZM8.75 5C8.75 4.33696 9.01339 3.70107 9.48223 3.23223C9.95107 2.76339 10.587 2.5 11.25 2.5H18.75C19.413 2.5 20.0489 2.76339 20.5178 3.23223C20.9866 3.70107 21.25 4.33696 21.25 5V7.5H8.75V5ZM21.25 26.25C21.25 26.5815 21.1183 26.8995 20.8839 27.1339C20.6495 27.3683 20.3315 27.5 20 27.5H10C9.66848 27.5 9.35054 27.3683 9.11612 27.1339C8.8817 26.8995 8.75 26.5815 8.75 26.25V21.25C8.75 20.9185 8.8817 20.6005 9.11612 20.3661C9.35054 20.1317 9.66848 20 10 20H20C20.3315 20 20.6495 20.1317 20.8839 20.3661C21.1183 20.6005 21.25 20.9185 21.25 21.25V26.25ZM27.5 20C27.5 20.9946 27.1049 21.9484 26.4017 22.6517C25.6984 23.3549 24.7446 23.75 23.75 23.75V21.25C23.75 20.2554 23.3549 19.3016 22.6517 18.5983C21.9484 17.8951 20.9946 17.5 20 17.5H10C9.00544 17.5 8.05161 17.8951 7.34835 18.5983C6.64509 19.3016 6.25 20.2554 6.25 21.25V23.75C5.25544 23.75 4.30161 23.3549 3.59835 22.6517C2.89509 21.9484 2.5 20.9946 2.5 20V13.75C2.5 12.7554 2.89509 11.8016 3.59835 11.0983C4.30161 10.3951 5.25544 10 6.25 10H23.75C24.7446 10 25.6984 10.3951 26.4017 11.0983C27.1049 11.8016 27.5 12.7554 27.5 13.75V20Z"/>
        <path d="M22.5 12.5H20C19.6685 12.5 19.3505 12.6317 19.1161 12.8661C18.8817 13.1005 18.75 13.4185 18.75 13.75C18.75 14.0815 18.8817 14.3995 19.1161 14.6339C19.3505 14.8683 19.6685 15 20 15H22.5C22.8315 15 23.1495 14.8683 23.3839 14.6339C23.6183 14.3995 23.75 14.0815 23.75 13.75C23.75 13.4185 23.6183 13.1005 23.3839 12.8661C23.1495 12.6317 22.8315 12.5 22.5 12.5Z"/>
        </g>
        <defs>
        <clipPath id="clip0_2376_30646">
        <rect width="30" height="30" fill="white"/>
        </clipPath>
        </defs>
    </svg>
    <svg id="jpg" xmlns="http://www.w3.org/2000/svg" viewBox="0 0 30 30">
        <path d="M24.9375 6.92503L20.575 2.56253C19.7641 1.74781 18.7997 1.10187 17.7377 0.662043C16.6757 0.222212 15.537 -0.00279462 14.3875 2.61972e-05H8.75C5.3 2.61972e-05 2.5 2.80003 2.5 6.25003V23.75C2.5 27.2 5.3 30 8.75 30H21.25C24.7 30 27.5 27.2 27.5 23.75V13.1125C27.5 10.775 26.5875 8.57503 24.9375 6.92503ZM23.175 8.68753C23.575 9.08753 23.9125 9.52503 24.1875 10H18.7625C18.075 10 17.5125 9.43753 17.5125 8.75003V3.32503C17.9875 3.60003 18.425 3.93753 18.825 4.33753L23.1875 8.70003L23.175 8.68753ZM25 23.75C25 25.8125 23.3125 27.5 21.25 27.5H8.75C6.6875 27.5 5 25.8125 5 23.75V6.25003C5 4.18753 6.6875 2.50003 8.75 2.50003H14.3875C14.5875 2.50003 14.8 2.50003 15 2.52503V8.75003C15 10.8125 16.6875 12.5 18.75 12.5H24.975C25 12.7 25 12.9 25 13.1125V23.75Z"/>
        <path d="M6.25653 23.1028L7.28654 22.051L7.27275 22.042C7.28582 22.0547 7.60375 22.3615 7.86869 22.21C7.939 22.168 7.99713 22.1074 8.03707 22.0346C8.07702 21.9618 8.09732 21.8793 8.09589 21.7957V16.9965C8.09589 16.7985 8.17236 16.6086 8.30849 16.4686C8.44462 16.3286 8.62924 16.25 8.82176 16.25C9.01427 16.25 9.1989 16.3286 9.33503 16.4686C9.47115 16.6086 9.54763 16.7985 9.54763 16.9965V21.7979C9.54853 22.1474 9.45872 22.4907 9.28748 22.7925C9.11624 23.0944 8.86976 23.3437 8.57351 23.5148C8.31057 23.6683 8.01352 23.7493 7.71118 23.75C7.07604 23.753 6.53164 23.3939 6.25 23.1028H6.25653ZM16.8651 20.0004C16.866 19.3209 17.0463 18.6545 17.3867 18.0723C17.7272 17.4901 18.2151 17.0139 18.7983 16.6946C19.3814 16.3754 20.038 16.225 20.6978 16.2596C21.3575 16.2943 21.9958 16.5126 22.5443 16.8912C22.6233 16.9461 22.691 17.0165 22.7435 17.0983C22.7961 17.1801 22.8324 17.2717 22.8505 17.368C22.8686 17.4642 22.8681 17.5632 22.849 17.6592C22.8299 17.7553 22.7926 17.8465 22.7392 17.9277C22.6858 18.009 22.6174 18.0786 22.5379 18.1326C22.4584 18.1866 22.3692 18.224 22.2757 18.2426C22.1821 18.2612 22.0858 18.2607 21.9924 18.2411C21.899 18.2214 21.8103 18.1831 21.7314 18.1282C21.4468 17.9308 21.1213 17.8048 20.7808 17.7603C20.4404 17.7157 20.0945 17.7539 19.771 17.8718C19.4475 17.9896 19.1554 18.1838 18.9181 18.4388C18.6808 18.6938 18.505 19.0024 18.4047 19.34C18.3044 19.6775 18.2825 20.0345 18.3407 20.3824C18.3988 20.7302 18.5355 21.0592 18.7397 21.3428C18.9439 21.6265 19.21 21.8569 19.5165 22.0157C19.823 22.1745 20.1614 22.2571 20.5046 22.257C21.5209 22.257 22.029 21.5463 22.217 20.7469H21.282C21.0895 20.7469 20.9049 20.6682 20.7688 20.5282C20.6326 20.3882 20.5562 20.1983 20.5562 20.0004C20.5562 19.8024 20.6326 19.6125 20.7688 19.4725C20.9049 19.3325 21.0895 19.2539 21.282 19.2539H23.0241C23.1195 19.2539 23.2138 19.2732 23.3019 19.3107C23.39 19.3482 23.47 19.4032 23.5374 19.4725C23.6048 19.5418 23.6583 19.6241 23.6947 19.7147C23.7312 19.8053 23.75 19.9023 23.75 20.0004C23.75 22.2085 22.4144 23.75 20.5025 23.75C19.5361 23.7484 18.6099 23.3528 17.9268 22.6499C17.2437 21.947 16.8596 20.9941 16.8586 20.0004H16.8651ZM11.7499 23.75C11.9424 23.75 12.1271 23.6713 12.2632 23.5313C12.3993 23.3913 12.4758 23.2015 12.4758 23.0035V21.1373H13.3759C14.0056 21.1373 14.6095 20.88 15.0548 20.4221C15.5 19.9642 15.7502 19.3431 15.7502 18.6955C15.7502 18.0479 15.5 17.4268 15.0548 16.9689C14.6095 16.511 14.0056 16.2537 13.3759 16.2537H11.7499C11.7252 16.2537 11.7013 16.2537 11.6773 16.2575C11.6534 16.2612 11.6396 16.2627 11.6207 16.2664C11.6161 16.2661 11.6115 16.2661 11.6069 16.2664C11.5846 16.271 11.5626 16.2767 11.5409 16.2836C11.519 16.2904 11.4974 16.2984 11.4763 16.3075C11.4558 16.3158 11.4359 16.3255 11.4167 16.3366H11.4124C11.3938 16.3464 11.3759 16.3573 11.3587 16.3694L11.3507 16.3739C11.334 16.3859 11.3173 16.3986 11.3013 16.412L11.2941 16.418C11.2756 16.4334 11.2579 16.4498 11.2411 16.4672L11.2309 16.4784C11.2186 16.4919 11.2055 16.506 11.1932 16.521C11.1808 16.5359 11.1852 16.5329 11.1808 16.5381C11.1765 16.5434 11.1605 16.5658 11.1511 16.5799C11.1416 16.5941 11.1453 16.5904 11.1416 16.5956C11.138 16.6008 11.1228 16.627 11.1148 16.6434L11.1082 16.6561C11.0995 16.6733 11.0916 16.6912 11.0843 16.7091L11.0799 16.7203C11.0727 16.7397 11.0661 16.7584 11.0603 16.7778C11.0603 16.783 11.0603 16.7875 11.0567 16.792C11.0516 16.8106 11.0465 16.8293 11.0429 16.8487C11.0429 16.8569 11.0429 16.8651 11.0393 16.8733C11.0357 16.8815 11.0342 16.9047 11.0328 16.9211C11.0313 16.9375 11.0328 16.9517 11.0328 16.9666V23.0013C11.0321 23.1969 11.1063 23.385 11.2392 23.5251C11.3721 23.6651 11.5531 23.7459 11.7434 23.75H11.7499ZM13.3701 17.743C13.8876 17.743 14.3253 18.1774 14.3253 18.6918C14.3253 19.2061 13.8898 19.6406 13.3701 19.6406H12.4772C12.4772 19.2919 12.4736 18.9068 12.4736 18.6888V17.74L13.3701 17.743Z"/>
    </svg>
    <svg id="copy" xmlns="http://www.w3.org/2000/svg" viewBox="0 0 24 24">
        <path d="M18.4167 1H12.9167C10.3894 1 8.33333 3.05608 8.33333 5.58333V11.0833C8.33333 13.6106 10.3894 15.6667 12.9167 15.6667H18.4167C20.9439 15.6667 23 13.6106 23 11.0833V5.58333C23 3.05608 20.9439 1 18.4167 1ZM21.1667 11.0833C21.1667 12.5995 19.9328 13.8333 18.4167 13.8333H12.9167C11.4005 13.8333 10.1667 12.5995 10.1667 11.0833V5.58333C10.1667 4.06717 11.4005 2.83333 12.9167 2.83333H18.4167C19.9328 2.83333 21.1667 4.06717 21.1667 5.58333V11.0833ZM15.6667 18.4167C15.6667 20.9439 13.6106 23 11.0833 23H5.58333C3.05608 23 1 20.9439 1 18.4167V12.9167C1 10.3894 3.05608 8.33333 5.58333 8.33333C5.82645 8.33333 6.05961 8.42991 6.23151 8.60182C6.40342 8.77373 6.5 9.00688 6.5 9.25C6.5 9.49312 6.40342 9.72627 6.23151 9.89818C6.05961 10.0701 5.82645 10.1667 5.58333 10.1667C4.06717 10.1667 2.83333 11.4005 2.83333 12.9167V18.4167C2.83333 19.9328 4.06717 21.1667 5.58333 21.1667H11.0833C12.5995 21.1667 13.8333 19.9328 13.8333 18.4167C13.8333 18.1736 13.9299 17.9404 14.1018 17.7685C14.2737 17.5966 14.5069 17.5 14.75 17.5C14.9931 17.5 15.2263 17.5966 15.3982 17.7685C15.5701 17.9404 15.6667 18.1736 15.6667 18.4167Z"/>
    </svg>
    <svg id="time" xmlns="http://www.w3.org/2000/svg" viewBox="0 0 24 24">
        <path d="M9.24728 22.9996H1.91636C1.67333 22.9996 1.44025 22.903 1.2684 22.7312C1.09655 22.5593 1 22.3263 1 22.0832C1 21.8402 1.09655 21.6071 1.2684 21.4352C1.44025 21.2634 1.67333 21.1669 1.91636 21.1669H9.24728C9.49032 21.1669 9.7234 21.2634 9.89525 21.4352C10.0671 21.6071 10.1636 21.8402 10.1636 22.0832C10.1636 22.3263 10.0671 22.5593 9.89525 22.7312C9.7234 22.903 9.49032 22.9996 9.24728 22.9996ZM7.41455 19.3341H1.91636C1.67333 19.3341 1.44025 19.2376 1.2684 19.0657C1.09655 18.8939 1 18.6608 1 18.4178C1 18.1747 1.09655 17.9416 1.2684 17.7698C1.44025 17.5979 1.67333 17.5014 1.91636 17.5014H7.41455C7.65759 17.5014 7.89067 17.5979 8.06252 17.7698C8.23437 17.9416 8.33092 18.1747 8.33092 18.4178C8.33092 18.6608 8.23437 18.8939 8.06252 19.0657C7.89067 19.2376 7.65759 19.3341 7.41455 19.3341ZM5.58182 15.6687H1.91636C1.67333 15.6687 1.44025 15.5721 1.2684 15.4003C1.09655 15.2284 1 14.9953 1 14.7523C1 14.5093 1.09655 14.2762 1.2684 14.1043C1.44025 13.9325 1.67333 13.8359 1.91636 13.8359H5.58182C5.82486 13.8359 6.05794 13.9325 6.22979 14.1043C6.40164 14.2762 6.49819 14.5093 6.49819 14.7523C6.49819 14.9953 6.40164 15.2284 6.22979 15.4003C6.05794 15.5721 5.82486 15.6687 5.58182 15.6687Z"/>
        <path d="M12.9106 22.9577C12.6676 22.9685 12.4302 22.8823 12.2507 22.7181C12.0712 22.5539 11.9643 22.3251 11.9535 22.0821C11.9427 21.839 12.0288 21.6017 12.193 21.4222C12.3572 21.2427 12.586 21.1357 12.8291 21.1249C14.5632 20.9663 16.2163 20.3167 17.5946 19.2524C18.973 18.1881 20.0195 16.7531 20.6117 15.1154C21.2038 13.4778 21.3171 11.7053 20.9382 10.0056C20.5593 8.30588 19.7039 6.74933 18.4723 5.51824C17.2406 4.28714 15.6837 3.43249 13.9838 3.05438C12.2839 2.67626 10.5115 2.79034 8.8741 3.38325C7.23672 3.97616 5.80218 5.02336 4.7385 6.40218C3.67483 7.78101 3.02606 9.43437 2.86818 11.1686C2.85735 11.2885 2.82302 11.405 2.76714 11.5116C2.71127 11.6182 2.63495 11.7128 2.54254 11.7898C2.45013 11.8669 2.34344 11.9251 2.22856 11.9609C2.11368 11.9968 1.99286 12.0097 1.87301 11.9989C1.75315 11.988 1.6366 11.9537 1.53001 11.8978C1.42342 11.8419 1.32888 11.7656 1.25179 11.6732C1.17469 11.5808 1.11656 11.4741 1.0807 11.3592C1.04483 11.2444 1.03195 11.1235 1.04278 11.0037C1.29835 8.18431 2.63139 5.57211 4.76444 3.71086C6.89748 1.8496 9.66618 0.882679 12.4942 1.01138C15.3222 1.14008 17.9916 2.35448 19.9468 4.4018C21.9019 6.44911 22.9922 9.17159 22.9906 12.0025C23.0047 14.7501 21.9839 17.4023 20.1315 19.4315C18.279 21.4607 15.7306 22.7183 12.9931 22.954C12.9657 22.9566 12.9382 22.9578 12.9106 22.9577Z"/>
        <path d="M11.9945 6.50781C11.7515 6.50781 11.5184 6.60436 11.3465 6.77621C11.1747 6.94806 11.0781 7.18114 11.0781 7.42418V12.006C11.0782 12.249 11.1748 12.4821 11.3466 12.6539L14.0957 15.403C14.2685 15.5699 14.5 15.6623 14.7403 15.6602C14.9806 15.6581 15.2104 15.5617 15.3803 15.3918C15.5502 15.2219 15.6466 14.9921 15.6487 14.7518C15.6507 14.5115 15.5584 14.2801 15.3915 14.1072L12.9109 11.6266V7.42418C12.9109 7.18114 12.8143 6.94806 12.6425 6.77621C12.4706 6.60436 12.2375 6.50781 11.9945 6.50781Z"/>
    </svg>
    <svg id="whatsapp" xmlns="http://www.w3.org/2000/svg" viewBox="0 0 40 40">
        <path d="M18.0841 0.0868874C11.8341 0.735325 6.35756 4.13376 3.02943 9.43064C-1.68932 16.9306 -0.806507 26.8447 5.15443 33.376C8.45912 36.9931 12.5841 39.1572 17.5372 39.8603C18.4591 39.9931 21.5294 39.9853 22.4982 39.8603C27.0216 39.2353 31.0685 37.2275 34.1466 34.0869C35.1622 33.0556 35.3732 32.8135 36.0451 31.9228C38.0451 29.2588 39.3497 26.0088 39.8576 22.4619C39.9904 21.54 39.9904 18.4619 39.8576 17.54C39.5216 15.1728 38.9044 13.1572 37.9279 11.1806C36.881 9.08689 35.8185 7.5947 34.1544 5.91501C31.0685 2.79001 27.2091 0.8447 22.7716 0.18845C21.8107 0.0478249 19.0372 -0.0146751 18.0841 0.0868874ZM23.0451 7.99314C30.0372 9.6572 34.006 16.7197 31.756 23.4853C31.1779 25.2353 30.256 26.6963 28.8654 28.0947C27.1076 29.8603 25.2091 30.8916 22.7326 31.415C22.0529 31.5635 21.6622 31.5947 20.4669 31.5947C18.4904 31.6025 17.256 31.3447 15.5138 30.5791C15.0841 30.3916 14.6779 30.2353 14.6076 30.2353C14.5451 30.2353 13.1232 30.6025 11.4435 31.0478C9.77162 31.4853 8.38881 31.8447 8.38099 31.8369C8.36537 31.8291 8.74037 30.4385 9.20131 28.751L10.0451 25.6728L9.67787 24.9228C8.84974 23.2431 8.48256 21.6416 8.48256 19.6885C8.49037 16.3447 9.67006 13.5088 12.0294 11.1728C13.881 9.33689 16.2247 8.19626 18.9435 7.7822C19.0763 7.76657 19.8654 7.75876 20.7013 7.77439C21.9982 7.79782 22.3497 7.82907 23.0451 7.99314Z"/>
        <path d="M19.5703 9.78125C15.7422 10.0547 12.2422 12.7891 11.0156 16.4688C10.625 17.6562 10.5156 18.3594 10.5156 19.6875C10.5156 21.7109 10.8984 23.0625 12.0391 25.0469L12.2187 25.375L11.7344 27.1484C11.4687 28.125 11.2578 28.9453 11.2812 28.9609C11.2969 28.9766 12.125 28.7734 13.125 28.5156L14.9453 28.0312L15.8906 28.5078C17.4453 29.2812 18.7969 29.6094 20.4766 29.6094C24.6719 29.6094 28.5078 26.8438 29.8359 22.8438C30.2344 21.6328 30.3359 21.0156 30.3359 19.6875C30.3359 18.7344 30.2969 18.3047 30.1641 17.6562C29.3125 13.6641 26.1719 10.6016 22.1875 9.89062C21.3359 9.74219 20.5469 9.71094 19.5703 9.78125ZM17.2031 14.3203C17.4531 14.6016 18.4609 17.0938 18.4062 17.3047C18.3828 17.3984 18.1484 17.75 17.8906 18.0938C17.6328 18.4297 17.4219 18.7578 17.4219 18.8281C17.4219 18.9766 18.0469 19.9062 18.5312 20.4766C19.0547 21.0938 20.0469 21.8438 20.8828 22.2734C21.9375 22.7969 21.9922 22.7969 22.5937 22.0547C23.3437 21.1406 23.4141 21.0781 23.6172 21.1328C23.8516 21.2031 26.0859 22.25 26.3203 22.3984C26.4922 22.5078 26.5 22.5547 26.4609 23.0391C26.4375 23.3281 26.3594 23.7109 26.2891 23.8906C26.125 24.2969 25.5312 24.8438 24.9375 25.1328C24.5234 25.3359 24.4219 25.3516 23.5547 25.3516C22.6875 25.3516 22.5625 25.3281 21.875 25.0859C20.7422 24.6797 20.0391 24.3438 19.1875 23.7734C17.5469 22.6797 15.6016 20.4844 14.8047 18.8203C14.4609 18.0938 14.3516 17.5469 14.3906 16.7188C14.4297 15.9453 14.625 15.4375 15.1406 14.7969C15.5625 14.2812 15.8437 14.1484 16.5078 14.1406C16.9687 14.1406 17.0625 14.1641 17.2031 14.3203Z"/>
    </svg>
    <svg id="pinterest" xmlns="http://www.w3.org/2000/svg" viewBox="0 0 40 40">
        <path d="M19.9996 39.9993C31.0451 39.9993 39.9993 31.0451 39.9993 19.9996C39.9993 8.95415 31.0451 0 19.9996 0C8.95415 0 0 8.95415 0 19.9996C0 31.0451 8.95415 39.9993 19.9996 39.9993Z"/>
        <path d="M21.6153 26.7799C20.1033 26.663 19.468 25.9133 18.2822 25.1935C17.6305 28.6128 16.8341 31.8906 14.475 33.6029C13.7459 28.4349 15.5438 24.5532 16.3788 20.433C14.9556 18.0372 16.5499 13.215 19.5518 14.4033C23.2463 15.8642 16.3531 23.3114 20.9807 24.2416C25.8118 25.2127 27.784 15.8589 24.7879 12.8164C20.4591 8.42383 12.1876 12.7166 13.2048 19.0048C13.4525 20.542 15.0412 21.0087 13.8394 23.13C11.0689 22.5164 10.2425 20.3313 10.3487 17.4183C10.5202 12.6499 14.6333 9.31119 18.7589 8.84914C23.9764 8.26518 28.8735 10.765 29.5494 15.6728C30.3099 21.2119 27.194 27.2106 21.6153 26.7799Z" fill="white"/>
    </svg>
    <svg id="cart" xmlns="http://www.w3.org/2000/svg" viewBox="0 0 30 30">
        <path d="M26.5569 6.41675C26.2522 6.05106 25.8707 5.75695 25.4395 5.5553C25.0083 5.35365 24.538 5.24942 24.062 5.25H6.54667L6.50117 4.86975C6.40806 4.07937 6.02817 3.35063 5.43354 2.82168C4.8389 2.29274 4.07085 2.00037 3.27501 2L3.03451 2C2.74719 2 2.47164 2.11414 2.26847 2.3173C2.06531 2.52047 1.95117 2.79602 1.95117 3.08333C1.95117 3.37065 2.06531 3.6462 2.26847 3.84937C2.47164 4.05253 2.74719 4.16667 3.03451 4.16667H3.27501C3.54035 4.1667 3.79645 4.26412 3.99474 4.44044C4.19303 4.61676 4.31971 4.85973 4.35075 5.12325L5.84142 17.7983C5.99618 19.1164 6.62952 20.3319 7.62124 21.214C8.61296 22.0961 9.89401 22.5834 11.2213 22.5833H22.5345C22.8218 22.5833 23.0974 22.4692 23.3005 22.266C23.5037 22.0629 23.6178 21.7873 23.6178 21.5C23.6178 21.2127 23.5037 20.9371 23.3005 20.734C23.0974 20.5308 22.8218 20.4167 22.5345 20.4167H11.2213C10.5507 20.4148 9.8972 20.2055 9.35027 19.8176C8.80333 19.4298 8.38976 18.8822 8.16625 18.25H21.0796C22.3496 18.2501 23.5792 17.8039 24.5536 16.9895C25.5281 16.175 26.1854 15.0441 26.4107 13.7943L27.2611 9.07742C27.346 8.60942 27.3269 8.12849 27.2052 7.66869C27.0835 7.20889 26.8622 6.78148 26.5569 6.41675ZM25.1345 8.69283L24.283 13.4097C24.1477 14.1604 23.7527 14.8397 23.167 15.3285C22.5814 15.8173 21.8424 16.0845 21.0796 16.0833H7.82175L6.80234 7.41667H24.062C24.2211 7.41572 24.3785 7.44984 24.523 7.51661C24.6675 7.58338 24.7954 7.68116 24.8978 7.80299C25.0002 7.92482 25.0745 8.06772 25.1154 8.22152C25.1563 8.37531 25.1628 8.53623 25.1345 8.69283Z"/>
        <path d="M9.53385 28.0013C10.7305 28.0013 11.7005 27.0313 11.7005 25.8346C11.7005 24.638 10.7305 23.668 9.53385 23.668C8.33724 23.668 7.36719 24.638 7.36719 25.8346C7.36719 27.0313 8.33724 28.0013 9.53385 28.0013Z"/>
        <path d="M20.3678 28.0013C21.5645 28.0013 22.5345 27.0313 22.5345 25.8346C22.5345 24.638 21.5645 23.668 20.3678 23.668C19.1712 23.668 18.2012 24.638 18.2012 25.8346C18.2012 27.0313 19.1712 28.0013 20.3678 28.0013Z"/>
    </svg>
    <svg id="favorites" xmlns="http://www.w3.org/2000/svg" viewBox="0 0 30 30">
        <path d="M25.9111 6.05778C23.0834 3.31445 18.4833 3.31445 15.6564 6.05778L14.9998 6.69459L14.3435 6.05778C11.5166 3.31407 6.91612 3.31407 4.08918 6.05778C1.31963 8.74541 1.30165 13.0056 4.04747 15.9676C6.55185 18.6683 13.9379 24.5028 14.2513 24.7498C14.4555 24.9114 14.711 24.9995 14.9745 24.9993L14.9994 24.9989C15.2626 25.0108 15.5278 24.9232 15.7474 24.7498C16.0608 24.5028 23.4477 18.6683 25.9528 15.9673C28.6983 13.0056 28.6803 8.74541 25.9111 6.05778ZM24.2462 14.4771C22.2936 16.5822 16.9264 20.9237 14.9994 22.4643C13.0724 20.924 7.70627 16.5829 5.75404 14.4775C3.83855 12.4115 3.82056 9.46911 5.71233 7.6333C6.6785 6.69608 7.94733 6.2271 9.21616 6.2271C10.485 6.2271 11.7538 6.69571 12.72 7.6333L14.1633 9.03392C14.3304 9.19516 14.546 9.30062 14.779 9.33507C14.9669 9.37459 15.162 9.36776 15.3465 9.31522C15.531 9.26268 15.699 9.16609 15.8351 9.0343L17.2791 7.6333C19.2119 5.75849 22.3556 5.75886 24.2872 7.6333C26.179 9.46911 26.161 12.4115 24.2462 14.4771Z"/>
    </svg>
    <svg id="heart" xmlns="http://www.w3.org/2000/svg" viewBox="0 0 22 19">
        <path d="M16.0396 0C15.0078 0.0148624 13.9985 0.281596 13.1137 0.773264C12.2288 1.26493 11.4997 1.96412 11 2.80023C10.5003 1.96412 9.77118 1.26493 8.88632 0.773264C8.00146 0.281596 6.99216 0.0148624 5.96037 0C4.31556 0.0661794 2.76589 0.732519 1.64991 1.85344C0.533927 2.97436 -0.0576437 4.45875 0.00443589 5.98231C0.00443589 11.7313 10.0434 18.3712 10.4704 18.6529L11 19L11.5296 18.6529C11.9566 18.3729 21.9956 11.7313 21.9956 5.98231C22.0576 4.45875 21.4661 2.97436 20.3501 1.85344C19.2341 0.732519 17.6844 0.0661794 16.0396 0Z"/>
    </svg>
    <svg id="share" xmlns="http://www.w3.org/2000/svg" viewBox="0 0 24 24">
       <path d="M17.6373 7.91978H15.5903C15.3914 7.91978 15.2006 7.9988 15.06 8.13945C14.9193 8.2801 14.8403 8.47086 14.8403 8.66978C14.8403 8.86869 14.9193 9.05946 15.06 9.20011C15.2006 9.34076 15.3914 9.41978 15.5903 9.41978H17.6378C18.0513 9.41978 18.3878 9.75628 18.3878 10.1698V19.9778C18.3878 20.3913 18.0513 20.7278 17.6378 20.7278H6.36328C5.94978 20.7278 5.61328 20.3913 5.61328 19.9778V10.1698C5.61328 9.75628 5.94978 9.41978 6.36328 9.41978H8.41078C8.60969 9.41978 8.80046 9.34076 8.94111 9.20011C9.08176 9.05946 9.16078 8.86869 9.16078 8.66978C9.16078 8.47086 9.08176 8.2801 8.94111 8.13945C8.80046 7.9988 8.60969 7.91978 8.41078 7.91978H6.36328C5.76675 7.92044 5.19484 8.1577 4.77302 8.57952C4.35121 9.00133 4.11394 9.57324 4.11328 10.1698V19.9778C4.11328 21.2183 5.12278 22.2278 6.36328 22.2278H17.6378C18.8783 22.2278 19.8878 21.2183 19.8878 19.9778V10.1698C19.887 9.5732 19.6496 9.00129 19.2277 8.57949C18.8058 8.15769 18.2339 7.92044 17.6373 7.91978ZM9.20378 6.40578L11.2753 4.33428V14.2083C11.2753 14.3068 11.2947 14.4043 11.3324 14.4953C11.3701 14.5863 11.4253 14.669 11.495 14.7386C11.5646 14.8083 11.6473 14.8635 11.7383 14.9012C11.8293 14.9389 11.9268 14.9583 12.0253 14.9583C12.1238 14.9583 12.2213 14.9389 12.3123 14.9012C12.4033 14.8635 12.486 14.8083 12.5556 14.7386C12.6253 14.669 12.6805 14.5863 12.7182 14.4953C12.7559 14.4043 12.7753 14.3068 12.7753 14.2083V4.33428L14.8468 6.40578C14.9933 6.55228 15.1853 6.62528 15.3773 6.62528C15.5693 6.62528 15.7613 6.55228 15.9078 6.40578C16.0484 6.26513 16.1274 6.0744 16.1274 5.87553C16.1274 5.67665 16.0484 5.48592 15.9078 5.34528L12.5563 1.99328C12.4866 1.92358 12.4039 1.86829 12.3129 1.83057C12.2219 1.79285 12.1243 1.77344 12.0258 1.77344C11.9273 1.77344 11.8297 1.79285 11.7387 1.83057C11.6476 1.86829 11.5649 1.92358 11.4953 1.99328L8.14328 5.34528C8.07165 5.41446 8.01451 5.49722 7.97521 5.58872C7.9359 5.68023 7.91521 5.77864 7.91434 5.87823C7.91348 5.97781 7.93246 6.07657 7.97017 6.16874C8.00788 6.26091 8.06357 6.34465 8.13399 6.41507C8.20441 6.48549 8.28814 6.54118 8.38032 6.57889C8.47249 6.6166 8.57125 6.63558 8.67083 6.63472C8.77042 6.63385 8.86883 6.61316 8.96034 6.57385C9.05184 6.53455 9.1346 6.47741 9.20378 6.40578Z"/>
    </svg>
    <svg id="arrow-right" xmlns="http://www.w3.org/2000/svg" viewBox="0 0 24 24"> 
       <path d="M18 11.9986C17.9951 11.4725 17.7832 10.9695 17.41 10.5986L13.12 6.29861C12.9326 6.11235 12.6792 6.00781 12.415 6.00781C12.1508 6.00781 11.8974 6.11235 11.71 6.29861C11.6163 6.39157 11.5419 6.50217 11.4911 6.62403C11.4403 6.74589 11.4142 6.87659 11.4142 7.00861C11.4142 7.14062 11.4403 7.27132 11.4911 7.39318C11.5419 7.51504 11.6163 7.62564 11.71 7.71861L15 10.9986H5C4.73478 10.9986 4.48043 11.104 4.29289 11.2915C4.10536 11.479 4 11.7334 4 11.9986C4 12.2638 4.10536 12.5182 4.29289 12.7057C4.48043 12.8932 4.73478 12.9986 5 12.9986H15L11.71 16.2886C11.5217 16.4756 11.4154 16.7297 11.4144 16.9951C11.4135 17.2604 11.518 17.5153 11.705 17.7036C11.892 17.8919 12.1461 17.9982 12.4115 17.9992C12.6768 18.0001 12.9317 17.8956 13.12 17.7086L17.41 13.4086C17.7856 13.0353 17.9978 12.5282 18 11.9986Z"/>
    </svg>
    <svg id="arrow-left" xmlns="http://www.w3.org/2000/svg" viewBox="0 0 24 24">
       <path d="M19 11.0008H9L12.29 7.71079C12.3837 7.61783 12.4581 7.50723 12.5089 7.38537C12.5597 7.26351 12.5858 7.1328 12.5858 7.00079C12.5858 6.86878 12.5597 6.73807 12.5089 6.61622C12.4581 6.49436 12.3837 6.38376 12.29 6.29079C12.1026 6.10454 11.8492 6 11.585 6C11.3208 6 11.0674 6.10454 10.88 6.29079L6.59 10.5908C6.21441 10.9641 6.00223 11.4712 6 12.0008C6.00487 12.5269 6.21684 13.0299 6.59 13.4008L10.88 17.7008C10.9732 17.7934 11.0838 17.8667 11.2054 17.9165C11.3269 17.9664 11.4571 17.9918 11.5885 17.9913C11.7199 17.9909 11.8499 17.9645 11.9712 17.9138C12.0924 17.8631 12.2024 17.789 12.295 17.6958C12.3876 17.6026 12.4609 17.492 12.5107 17.3704C12.5606 17.2489 12.586 17.1187 12.5856 16.9873C12.5851 16.8559 12.5588 16.7258 12.508 16.6046C12.4573 16.4834 12.3832 16.3734 12.29 16.2808L9 13.0008H19C19.2652 13.0008 19.5196 12.8954 19.7071 12.7079C19.8946 12.5204 20 12.266 20 12.0008C20 11.7356 19.8946 11.4812 19.7071 11.2937C19.5196 11.1061 19.2652 11.0008 19 11.0008Z"/>
   </svg>
    <svg id="chevron" xmlns="http://www.w3.org/2000/svg" viewBox="0 0 24 24">
        <path d="M18.7098 8.20986C18.6169 8.11613 18.5063 8.04174 18.3844 7.99097C18.2625 7.9402 18.1318 7.91406 17.9998 7.91406C17.8678 7.91406 17.7371 7.9402 17.6152 7.99097C17.4934 8.04174 17.3828 8.11613 17.2898 8.20986L12.7098 12.7899C12.6169 12.8836 12.5063 12.958 12.3844 13.0088C12.2625 13.0595 12.1318 13.0857 11.9998 13.0857C11.8678 13.0857 11.7371 13.0595 11.6152 13.0088C11.4934 12.958 11.3828 12.8836 11.2898 12.7899L6.70982 8.20986C6.61685 8.11613 6.50625 8.04174 6.38439 7.99097C6.26253 7.9402 6.13183 7.91406 5.99982 7.91406C5.8678 7.91406 5.7371 7.9402 5.61524 7.99097C5.49338 8.04174 5.38278 8.11613 5.28982 8.20986C5.10356 8.39722 4.99902 8.65067 4.99902 8.91486C4.99902 9.17905 5.10356 9.4325 5.28982 9.61986L9.87982 14.2099C10.4423 14.7717 11.2048 15.0872 11.9998 15.0872C12.7948 15.0872 13.5573 14.7717 14.1198 14.2099L18.7098 9.61986C18.8961 9.4325 19.0006 9.17905 19.0006 8.91486C19.0006 8.65067 18.8961 8.39722 18.7098 8.20986Z"/>
    </svg>
    <svg id="card-view-2" xmlns="http://www.w3.org/2000/svg" viewBox="0 0 24 24">
        <path d="M12.3984 2H3.19836C2.98638 2.00057 2.78325 2.08503 2.63336 2.23492C2.48347 2.38481 2.39901 2.58794 2.39844 2.79992V9.99992C2.39926 10.2118 2.4838 10.4148 2.63364 10.5646C2.78347 10.7145 2.98646 10.799 3.19836 10.7998H12.3984C12.6103 10.7991 12.8133 10.7146 12.9632 10.5647C13.1131 10.4149 13.1977 10.2119 13.1985 9.99992V2.79992C13.1979 2.58792 13.1134 2.38479 12.9634 2.23491C12.8135 2.08502 12.6104 2.00057 12.3984 2ZM11.5984 9.2H3.99852V3.60008H11.5984V9.2ZM8.39836 12.4002H3.19836C2.98638 12.4007 2.78325 12.4852 2.63336 12.6351C2.48347 12.785 2.39901 12.9881 2.39844 13.2001V20.4001C2.39926 20.612 2.4838 20.815 2.63364 20.9648C2.78347 21.1146 2.98646 21.1992 3.19836 21.2H8.39836C8.6103 21.1992 8.81334 21.1147 8.96323 20.9649C9.11312 20.815 9.19769 20.612 9.19852 20.4001V13.2001C9.19795 12.9881 9.11345 12.7849 8.96351 12.635C8.81357 12.4851 8.61038 12.4007 8.39836 12.4002ZM7.59844 19.6002H3.99852V14H7.59844V19.6002Z"/>
        <path d="M21.0002 2H15.8002C15.5882 2.00057 15.385 2.08502 15.2351 2.23491C15.0851 2.38479 15.0006 2.58792 15 2.79992V9.99992C15.0008 10.2119 15.0854 10.4149 15.2353 10.5647C15.3852 10.7146 15.5882 10.7991 15.8002 10.7998H21.0002C21.2121 10.799 21.415 10.7145 21.5649 10.5646C21.7147 10.4148 21.7993 10.2118 21.8001 9.99992V2.79992C21.7995 2.58794 21.715 2.38481 21.5652 2.23492C21.4153 2.08503 21.2121 2.00057 21.0002 2ZM20.2 9.2H16.6001V3.60008H20.2V9.2ZM21.0002 12.4002H11.8002C11.5881 12.4007 11.3849 12.4851 11.235 12.635C11.0851 12.7849 11.0006 12.9881 11 13.2001V20.4001C11.0008 20.612 11.0854 20.815 11.2353 20.9649C11.3852 21.1147 11.5882 21.1992 11.8002 21.2H21.0002C21.2121 21.1992 21.415 21.1146 21.5649 20.9648C21.7147 20.815 21.7993 20.612 21.8001 20.4001V13.2001C21.7995 12.9881 21.715 12.785 21.5652 12.6351C21.4153 12.4852 21.2121 12.4007 21.0002 12.4002ZM20.2 19.6002H12.6001V14H20.2V19.6002Z"/>
    </svg>
    <svg id="card-view-3" xmlns="http://www.w3.org/2000/svg" viewBox="0 0 24 24">
        <path d="M10.3984 2.39844H3.19836C2.98638 2.39901 2.78325 2.48347 2.63336 2.63336C2.48347 2.78325 2.39901 2.98638 2.39844 3.19836V10.3984C2.39926 10.6103 2.4838 10.8132 2.63364 10.9631C2.78347 11.1129 2.98646 11.1975 3.19836 11.1983H10.3984C10.6103 11.1975 10.8133 11.113 10.9632 10.9632C11.1131 10.8133 11.1977 10.6103 11.1985 10.3984V3.19836C11.1979 2.98636 11.1134 2.78323 10.9634 2.63334C10.8135 2.48346 10.6104 2.39901 10.3984 2.39844ZM9.59844 9.59844H3.99852V3.99852H9.59844V9.59844ZM20.7985 2.39844H13.5985C13.3865 2.39901 13.1834 2.48346 13.0334 2.63334C12.8835 2.78323 12.799 2.98636 12.7984 3.19836V10.3984C12.7992 10.6103 12.8838 10.8133 13.0336 10.9632C13.1835 11.113 13.3866 11.1975 13.5985 11.1983H20.7985C21.0104 11.1975 21.2134 11.1129 21.3632 10.9631C21.5131 10.8132 21.5976 10.6103 21.5984 10.3984V3.19836C21.5979 2.98638 21.5134 2.78325 21.3635 2.63336C21.2136 2.48347 21.0105 2.39901 20.7985 2.39844ZM19.9984 9.59844H14.3984V3.99852H19.9984V9.59844ZM10.3984 12.7986H3.19836C2.98638 12.7992 2.78325 12.8836 2.63336 13.0335C2.48347 13.1834 2.39901 13.3865 2.39844 13.5985V20.7985C2.39926 21.0104 2.4838 21.2134 2.63364 21.3632C2.78347 21.5131 2.98646 21.5976 3.19836 21.5984H10.3984C10.6103 21.5977 10.8133 21.5132 10.9632 21.3633C11.1131 21.2135 11.1977 21.0105 11.1985 20.7985V13.5985C11.1979 13.3865 11.1135 13.1833 10.9635 13.0334C10.8136 12.8835 10.6104 12.7991 10.3984 12.7986ZM9.59844 19.9986H3.99852V14.3984H9.59844V19.9986ZM20.7985 12.7986H13.5985C13.3865 12.7991 13.1833 12.8835 13.0334 13.0334C12.8834 13.1833 12.7989 13.3865 12.7984 13.5985V20.7985C12.7992 21.0105 12.8838 21.2135 13.0336 21.3633C13.1835 21.5132 13.3866 21.5977 13.5985 21.5984H20.7985C21.0104 21.5976 21.2134 21.5131 21.3632 21.3632C21.5131 21.2134 21.5976 21.0104 21.5984 20.7985V13.5985C21.5979 13.3865 21.5134 13.1834 21.3635 13.0335C21.2136 12.8836 21.0105 12.7992 20.7985 12.7986ZM19.9984 19.9986H14.3984V14.3984H19.9984V19.9986Z"/>
    </svg>
    <svg id="del" xmlns="http://www.w3.org/2000/svg" viewBox="0 0 24 24">
        <path d="M19.625 5.5H16.9125C16.7094 4.51249 16.1721 3.62518 15.3911 2.98763C14.6101 2.35008 13.6332 2.00127 12.625 2L10.875 2C9.86682 2.00127 8.8899 2.35008 8.10891 2.98763C7.32791 3.62518 6.79058 4.51249 6.5875 5.5H3.875C3.64294 5.5 3.42038 5.59219 3.25628 5.75628C3.09219 5.92038 3 6.14294 3 6.375C3 6.60706 3.09219 6.82962 3.25628 6.99372C3.42038 7.15781 3.64294 7.25 3.875 7.25H4.75V18.625C4.75139 19.7849 5.21277 20.8969 6.03294 21.7171C6.85311 22.5372 7.96511 22.9986 9.125 23H14.375C15.5349 22.9986 16.6469 22.5372 17.4671 21.7171C18.2872 20.8969 18.7486 19.7849 18.75 18.625V7.25H19.625C19.8571 7.25 20.0796 7.15781 20.2437 6.99372C20.4078 6.82962 20.5 6.60706 20.5 6.375C20.5 6.14294 20.4078 5.92038 20.2437 5.75628C20.0796 5.59219 19.8571 5.5 19.625 5.5ZM10.875 3.75H12.625C13.1677 3.75066 13.697 3.9192 14.1402 4.23251C14.5833 4.54582 14.9187 4.98856 15.1004 5.5H8.39963C8.58126 4.98856 8.91666 4.54582 9.35984 4.23251C9.80301 3.9192 10.3323 3.75066 10.875 3.75ZM17 18.625C17 19.3212 16.7234 19.9889 16.2312 20.4812C15.7389 20.9734 15.0712 21.25 14.375 21.25H9.125C8.42881 21.25 7.76113 20.9734 7.26885 20.4812C6.77656 19.9889 6.5 19.3212 6.5 18.625V7.25H17V18.625Z"/>
        <path d="M10 17.75C10.2321 17.75 10.4546 17.6578 10.6187 17.4937C10.7828 17.3296 10.875 17.1071 10.875 16.875V11.625C10.875 11.3929 10.7828 11.1704 10.6187 11.0063C10.4546 10.8422 10.2321 10.75 10 10.75C9.76794 10.75 9.54538 10.8422 9.38128 11.0063C9.21719 11.1704 9.125 11.3929 9.125 11.625V16.875C9.125 17.1071 9.21719 17.3296 9.38128 17.4937C9.54538 17.6578 9.76794 17.75 10 17.75ZM13.5 17.75C13.7321 17.75 13.9546 17.6578 14.1187 17.4937C14.2828 17.3296 14.375 17.1071 14.375 16.875V11.625C14.375 11.3929 14.2828 11.1704 14.1187 11.0063C13.9546 10.8422 13.7321 10.75 13.5 10.75C13.2679 10.75 13.0454 10.8422 12.8813 11.0063C12.7172 11.1704 12.625 11.3929 12.625 11.625V16.875C12.625 17.1071 12.7172 17.3296 12.8813 17.4937C13.0454 17.6578 13.2679 17.75 13.5 17.75Z"/>
    </svg>
    <svg id="reflect" xmlns="http://www.w3.org/2000/svg" viewBox="0 0 24 24">
        <path d="M13.0017 1V23C13.0017 23.55 12.5517 24 12.0017 24C11.4517 24 11.0017 23.55 11.0017 23V1C11.0017 0.45 11.4517 0 12.0017 0C12.5517 0 13.0017 0.45 13.0017 1ZM9.00172 12C9.00172 12.65 8.72172 13.28 8.24172 13.71L3.16172 18.5C2.89371 18.749 2.55853 18.914 2.19771 18.9744C1.83688 19.0349 1.46625 18.9881 1.13172 18.84C0.441719 18.54 0.0117188 17.88 0.0117188 17.12V6.88C0.0117188 6.13 0.441719 5.47 1.13172 5.16C1.82172 4.86 2.60172 4.98 3.15172 5.49L8.26172 10.3C8.73172 10.72 9.01172 11.34 9.01172 11.99L9.00172 12ZM7.00172 12C7.00172 12 6.99172 11.86 6.90172 11.78L2.00172 7.17V16.84L6.88172 12.24C6.98172 12.15 7.00172 12.05 7.00172 12ZM24.0017 6.88V17.13C24.0017 17.88 23.5717 18.54 22.8817 18.85C22.549 18.999 22.1797 19.0462 21.8203 18.9857C21.4608 18.9252 21.1273 18.7597 20.8617 18.51L15.7517 13.7C15.2817 13.28 15.0017 12.66 15.0017 12.01C15.0017 11.36 15.2817 10.74 15.7617 10.3L20.8417 5.51C21.4117 4.99 22.1817 4.86 22.8717 5.17C23.5617 5.47 23.9917 6.13 23.9917 6.89L24.0017 6.88Z" fill="#242626"/>
    </svg>
    <svg id="greyscale" xmlns="http://www.w3.org/2000/svg" viewBox="0 0 24 24">
        <path d="M12 1.5C9.9233 1.5 7.89323 2.11581 6.16652 3.26957C4.4398 4.42332 3.09399 6.0632 2.29927 7.98182C1.50455 9.90045 1.29661 12.0116 1.70176 14.0484C2.1069 16.0852 3.10693 17.9562 4.57538 19.4246C6.04383 20.8931 7.91476 21.8931 9.95156 22.2982C11.9884 22.7034 14.0996 22.4955 16.0182 21.7007C17.9368 20.906 19.5767 19.5602 20.7304 17.8335C21.8842 16.1068 22.5 14.0767 22.5 12C22.5 9.21523 21.3938 6.54451 19.4246 4.57538C17.4555 2.60625 14.7848 1.5 12 1.5ZM12 21V3C14.387 3 16.6761 3.94821 18.364 5.63604C20.0518 7.32387 21 9.61305 21 12C21 14.3869 20.0518 16.6761 18.364 18.364C16.6761 20.0518 14.387 21 12 21Z" fill="#242626"/>
    </svg>
    <svg id="edit" xmlns="http://www.w3.org/2000/svg" viewBox="0 0 24 24">
        <path d="M21.116 2.88672C20.5474 2.31892 19.7766 2 18.973 2C18.1694 2 17.3986 2.31892 16.8299 2.88672L3.22545 16.4912C2.83586 16.8786 2.52696 17.3394 2.31662 17.847C2.10627 18.3545 1.99866 18.8987 2.00001 19.4481V21.1654C2.00001 21.3873 2.08814 21.6 2.24501 21.7569C2.40188 21.9138 2.61464 22.0019 2.83649 22.0019H4.55378C5.10315 22.0035 5.64736 21.896 6.15493 21.6858C6.66249 21.4756 7.12332 21.1668 7.51073 20.7773L21.116 7.172C21.6836 6.60335 22.0023 5.83277 22.0023 5.02936C22.0023 4.22595 21.6836 3.45536 21.116 2.88672ZM6.32795 19.5945C5.85618 20.0632 5.21875 20.327 4.55378 20.329H3.67297V19.4481C3.67212 19.1185 3.73667 18.7919 3.86288 18.4874C3.98909 18.1829 4.17445 17.9064 4.40823 17.674L14.7329 7.34933L16.6568 9.27323L6.32795 19.5945ZM19.9324 5.98922L17.8362 8.08627L15.9123 6.16655L18.0094 4.0695C18.2645 3.81493 18.6103 3.67213 18.9707 3.67253C19.3311 3.67292 19.6766 3.81647 19.9312 4.07159C20.1857 4.32671 20.3285 4.67252 20.3281 5.03293C20.3277 5.39334 20.1842 5.73883 19.9291 5.9934L19.9324 5.98922Z"/>
    </svg>
    <svg id="clear" xmlns="http://www.w3.org/2000/svg" viewBox="0 0 16 16">
        <path d="M12.7674 3.23264C12.6184 3.08368 12.4163 3 12.2056 3C11.9949 3 11.7929 3.08368 11.6439 3.23264L8 6.87649L4.35615 3.23264C4.20714 3.08368 4.00508 3 3.79439 3C3.5837 3 3.38164 3.08368 3.23264 3.23264C3.08368 3.38164 3 3.5837 3 3.79439C3 4.00508 3.08368 4.20714 3.23264 4.35615L6.87649 8L3.23264 11.6439C3.08368 11.7929 3 11.9949 3 12.2056C3 12.4163 3.08368 12.6184 3.23264 12.7674C3.38164 12.9163 3.5837 13 3.79439 13C4.00508 13 4.20714 12.9163 4.35615 12.7674L8 9.12351L11.6439 12.7674C11.7929 12.9163 11.9949 13 12.2056 13C12.4163 13 12.6184 12.9163 12.7674 12.7674C12.9163 12.6184 13 12.4163 13 12.2056C13 11.9949 12.9163 11.7929 12.7674 11.6439L9.12351 8L12.7674 4.35615C12.9163 4.20714 13 4.00508 13 3.79439C13 3.5837 12.9163 3.38164 12.7674 3.23264Z"/>
    </svg>
    <svg id="filter-icon" xmlns="http://www.w3.org/2000/svg" viewBox="0 0 21 21">
        <path d="M0.875 4.15639H3.269C3.45681 4.84739 3.86678 5.45739 4.43566 5.89229C5.00454 6.32719 5.70073 6.56281 6.41681 6.56281C7.13289 6.56281 7.82908 6.32719 8.39796 5.89229C8.96685 5.45739 9.37682 4.84739 9.56462 4.15639H20.125C20.3571 4.15639 20.5796 4.0642 20.7437 3.90011C20.9078 3.73602 21 3.51347 21 3.28141C21 3.04935 20.9078 2.82679 20.7437 2.6627C20.5796 2.49861 20.3571 2.40642 20.125 2.40642H9.56462C9.37682 1.71542 8.96685 1.10542 8.39796 0.670522C7.82908 0.235625 7.13289 0 6.41681 0C5.70073 0 5.00454 0.235625 4.43566 0.670522C3.86678 1.10542 3.45681 1.71542 3.269 2.40642H0.875C0.642936 2.40642 0.420376 2.49861 0.256282 2.6627C0.0921872 2.82679 0 3.04935 0 3.28141C0 3.51347 0.0921872 3.73602 0.256282 3.90011C0.420376 4.0642 0.642936 4.15639 0.875 4.15639ZM6.41638 1.75019C6.71923 1.75019 7.01528 1.83999 7.26709 2.00825C7.51891 2.1765 7.71517 2.41564 7.83107 2.69543C7.94696 2.97523 7.97729 3.2831 7.9182 3.58013C7.85912 3.87716 7.71328 4.14999 7.49913 4.36414C7.28498 4.57828 7.01214 4.72412 6.71511 4.7832C6.41807 4.84228 6.11019 4.81196 5.83039 4.69607C5.55059 4.58017 5.31144 4.38391 5.14319 4.1321C4.97493 3.8803 4.88513 3.58425 4.88513 3.28141C4.88559 2.87544 5.04706 2.48624 5.33413 2.19918C5.62119 1.91212 6.0104 1.75065 6.41638 1.75019ZM20.125 9.62502H17.731C17.5435 8.93386 17.1337 8.32363 16.5649 7.88856C15.996 7.45348 15.2998 7.21774 14.5836 7.21774C13.8675 7.21774 13.1712 7.45348 12.6024 7.88856C12.0335 8.32363 11.6237 8.93386 11.4362 9.62502H0.875C0.642936 9.62502 0.420376 9.7172 0.256282 9.88129C0.0921872 10.0454 0 10.2679 0 10.5C0 10.7321 0.0921872 10.9546 0.256282 11.1187C0.420376 11.2828 0.642936 11.375 0.875 11.375H11.4362C11.6237 12.0661 12.0335 12.6764 12.6024 13.1114C13.1712 13.5465 13.8675 13.7823 14.5836 13.7823C15.2998 13.7823 15.996 13.5465 16.5649 13.1114C17.1337 12.6764 17.5435 12.0661 17.731 11.375H20.125C20.3571 11.375 20.5796 11.2828 20.7437 11.1187C20.9078 10.9546 21 10.7321 21 10.5C21 10.2679 20.9078 10.0454 20.7437 9.88129C20.5796 9.7172 20.3571 9.62502 20.125 9.62502ZM14.5836 12.0312C14.2808 12.0312 13.9847 11.9414 13.7329 11.7732C13.4811 11.6049 13.2848 11.3658 13.1689 11.086C13.053 10.8062 13.0227 10.4983 13.0818 10.2013C13.1409 9.90425 13.2867 9.63141 13.5009 9.41726C13.715 9.20312 13.9879 9.05729 14.2849 8.9982C14.5819 8.93912 14.8898 8.96945 15.1696 9.08534C15.4494 9.20123 15.6886 9.39749 15.8568 9.6493C16.0251 9.90111 16.1149 10.1972 16.1149 10.5C16.1144 10.906 15.9529 11.2952 15.6659 11.5822C15.3788 11.8693 14.9896 12.0308 14.5836 12.0312ZM20.125 16.8436H9.56462C9.37682 16.1526 8.96685 15.5426 8.39796 15.1077C7.82908 14.6728 7.13289 14.4372 6.41681 14.4372C5.70073 14.4372 5.00454 14.6728 4.43566 15.1077C3.86678 15.5426 3.45681 16.1526 3.269 16.8436H0.875C0.642936 16.8436 0.420376 16.9358 0.256282 17.0999C0.0921872 17.264 0 17.4865 0 17.7186C0 17.9507 0.0921872 18.1732 0.256282 18.3373C0.420376 18.5014 0.642936 18.5936 0.875 18.5936H3.269C3.45681 19.2846 3.86678 19.8946 4.43566 20.3295C5.00454 20.7644 5.70073 21 6.41681 21C7.13289 21 7.82908 20.7644 8.39796 20.3295C8.96685 19.8946 9.37682 19.2846 9.56462 18.5936H20.125C20.3571 18.5936 20.5796 18.5014 20.7437 18.3373C20.9078 18.1732 21 17.9507 21 17.7186C21 17.4865 20.9078 17.264 20.7437 17.0999C20.5796 16.9358 20.3571 16.8436 20.125 16.8436ZM6.41638 19.2498C6.11352 19.2498 5.81747 19.16 5.56566 18.9918C5.31385 18.8235 5.11758 18.5844 5.00168 18.3046C4.88579 18.0248 4.85546 17.7169 4.91455 17.4199C4.97363 17.1228 5.11947 16.85 5.33362 16.6359C5.54777 16.4217 5.82061 16.2759 6.11764 16.2168C6.41468 16.1577 6.72256 16.188 7.00236 16.3039C7.28216 16.4198 7.52131 16.6161 7.68956 16.8679C7.85782 17.1197 7.94763 17.4157 7.94763 17.7186C7.94693 18.1245 7.78538 18.5136 7.49837 18.8006C7.21135 19.0876 6.82227 19.2491 6.41638 19.2498Z"/>
    </svg>
    <svg id="close" xmlns="http://www.w3.org/2000/svg"  viewBox="0 0 16 16">
        <path d="M12.7674 3.23264C12.6184 3.08368 12.4163 3 12.2056 3C11.9949 3 11.7929 3.08368 11.6439 3.23264L8 6.87649L4.35615 3.23264C4.20714 3.08368 4.00508 3 3.79439 3C3.5837 3 3.38164 3.08368 3.23264 3.23264C3.08368 3.38164 3 3.5837 3 3.79439C3 4.00508 3.08368 4.20714 3.23264 4.35615L6.87649 8L3.23264 11.6439C3.08368 11.7929 3 11.9949 3 12.2056C3 12.4163 3.08368 12.6184 3.23264 12.7674C3.38164 12.9163 3.5837 13 3.79439 13C4.00508 13 4.20714 12.9163 4.35615 12.7674L8 9.12351L11.6439 12.7674C11.7929 12.9163 11.9949 13 12.2056 13C12.4163 13 12.6184 12.9163 12.7674 12.7674C12.9163 12.6184 13 12.4163 13 12.2056C13 11.9949 12.9163 11.7929 12.7674 11.6439L9.12351 8L12.7674 4.35615C12.9163 4.20714 13 4.00508 13 3.79439C13 3.5837 12.9163 3.38164 12.7674 3.23264Z"/>
    </svg>
    <svg id="plus" xmlns="http://www.w3.org/2000/svg" viewBox="0 0 16 17" fill="none">
       <g clip-path="url(#clip0_1316_174844)">
       <path d="M15 7.5H9V1.5C9 0.947719 8.55228 0.5 8 0.5C7.44772 0.5 7 0.947719 7 1.5V7.5H1C0.447719 7.5 0 7.94772 0 8.5C0 9.05228 0.447719 9.5 1 9.5H7V15.5C7 16.0523 7.44772 16.5 8 16.5C8.55228 16.5 9 16.0523 9 15.5V9.5H15C15.5523 9.5 16 9.05228 16 8.5C16 7.94772 15.5523 7.5 15 7.5Z" fill="#989898"/>
       </g>
       <defs>
       <clipPath id="clip0_1316_174844">
       <rect width="16" height="16" fill="white" transform="translate(0 0.5)"/>
       </clipPath>
       </defs>
    </svg>
    <svg id="minus" xmlns="http://www.w3.org/2000/svg" viewBox="0 0 16 17" fill="none">
        <path d="M15 9.5H1C0.447719 9.5 0 9.05228 0 8.5C0 7.94772 0.447719 7.5 1 7.5H15C15.5523 7.5 16 7.94772 16 8.5C16 9.05228 15.5523 9.5 15 9.5Z" fill="#989898"/>
    </svg>
    <svg id="star" xmlns="http://www.w3.org/2000/svg" viewBox="0 0 33 32">
        <path d="M28.8784 11.0328L20.9441 9.8797L17.3972 2.68907C17.3003 2.4922 17.1409 2.33282 16.9441 2.23595C16.4503 1.9922 15.8503 2.19532 15.6034 2.68907L12.0566 9.8797L4.12218 11.0328C3.90343 11.0641 3.70343 11.1672 3.5503 11.3234C3.36518 11.5137 3.26317 11.7697 3.26669 12.0351C3.27021 12.3006 3.37896 12.5538 3.56905 12.7391L9.30968 18.3359L7.95343 26.2391C7.92162 26.4229 7.94197 26.612 8.01215 26.7849C8.08234 26.9577 8.19956 27.1075 8.35052 27.2171C8.50148 27.3268 8.68014 27.3919 8.86624 27.4052C9.05234 27.4185 9.23844 27.3793 9.40343 27.2922L16.5003 23.5609L23.5972 27.2922C23.7909 27.3953 24.0159 27.4297 24.2316 27.3922C24.7753 27.2984 25.1409 26.7828 25.0472 26.2391L23.6909 18.3359L29.4316 12.7391C29.5878 12.5859 29.6909 12.3859 29.7222 12.1672C29.8066 11.6203 29.4253 11.1141 28.8784 11.0328Z"/>
    </svg>
    <svg id="download" xmlns="http://www.w3.org/2000/svg" viewBox="0 0 30 30">
        <path d="M12.7908 21.3771C13.081 21.6675 13.4256 21.8978 13.8049 22.055C14.1842 22.2122 14.5907 22.2931 15.0013 22.2931C15.4118 22.2931 15.8183 22.2122 16.1976 22.055C16.5769 21.8978 16.9215 21.6675 17.2117 21.3771L20.5565 18.0323C20.7358 17.834 20.832 17.5742 20.8251 17.3069C20.8183 17.0396 20.7089 16.7852 20.5196 16.5963C20.3303 16.4074 20.0757 16.2986 19.8083 16.2923C19.541 16.286 19.2815 16.3827 19.0835 16.5625L16.0356 19.6115L16.0429 3.54167C16.0429 3.2654 15.9332 3.00045 15.7378 2.8051C15.5425 2.60975 15.2775 2.5 15.0013 2.5C14.725 2.5 14.46 2.60975 14.2647 2.8051C14.0693 3.00045 13.9596 3.2654 13.9596 3.54167L13.9502 19.5917L10.919 16.5625C10.7235 16.3672 10.4585 16.2575 10.1821 16.2576C9.90581 16.2577 9.64084 16.3676 9.44552 16.563C9.2502 16.7585 9.14053 17.0235 9.14063 17.2998C9.14072 17.5762 9.25059 17.8411 9.44604 18.0365L12.7908 21.3771Z"/>
        <path d="M26.4583 19.167C26.1821 19.167 25.9171 19.2767 25.7218 19.4721C25.5264 19.6674 25.4167 19.9324 25.4167 20.2087V24.3753C25.4167 24.6516 25.3069 24.9165 25.1116 25.1119C24.9162 25.3072 24.6513 25.417 24.375 25.417H5.625C5.34873 25.417 5.08378 25.3072 4.88843 25.1119C4.69308 24.9165 4.58333 24.6516 4.58333 24.3753V20.2087C4.58333 19.9324 4.47359 19.6674 4.27824 19.4721C4.08289 19.2767 3.81793 19.167 3.54167 19.167C3.2654 19.167 3.00045 19.2767 2.8051 19.4721C2.60975 19.6674 2.5 19.9324 2.5 20.2087V24.3753C2.5 25.2041 2.82924 25.999 3.41529 26.585C4.00134 27.1711 4.7962 27.5003 5.625 27.5003H24.375C25.2038 27.5003 25.9987 27.1711 26.5847 26.585C27.1708 25.999 27.5 25.2041 27.5 24.3753V20.2087C27.5 19.9324 27.3903 19.6674 27.1949 19.4721C26.9996 19.2767 26.7346 19.167 26.4583 19.167Z"/>
    </svg>
    <svg id="search" xmlns="http://www.w3.org/2000/svg" viewBox="0 0 30 30">
        <path d="M27.6961 26.1656L21.235 19.7045C22.9958 17.551 23.8615 14.8033 23.653 12.0295C23.4446 9.25566 22.1781 6.66808 20.1153 4.80194C18.0526 2.93579 15.3515 1.93386 12.5708 2.00339C9.79002 2.07292 7.14238 3.20858 5.17548 5.17548C3.20858 7.14238 2.07292 9.79002 2.00339 12.5708C1.93386 15.3515 2.93579 18.0526 4.80194 20.1153C6.66808 22.1781 9.25566 23.4446 12.0295 23.653C14.8033 23.8615 17.551 22.9958 19.7045 21.235L26.1656 27.6961C26.3697 27.8933 26.6431 28.0024 26.927 28C27.2108 27.9975 27.4823 27.8837 27.683 27.683C27.8837 27.4823 27.9975 27.2108 28 26.927C28.0024 26.6431 27.8933 26.3697 27.6961 26.1656ZM12.8591 21.5186C11.1464 21.5186 9.47215 21.0108 8.0481 20.0592C6.62404 19.1077 5.51412 17.7553 4.8587 16.173C4.20328 14.5906 4.03179 12.8495 4.36593 11.1697C4.70006 9.4899 5.5248 7.94692 6.73586 6.73586C7.94692 5.5248 9.4899 4.70006 11.1697 4.36593C12.8495 4.03179 14.5906 4.20328 16.173 4.8587C17.7553 5.51412 19.1077 6.62404 20.0592 8.0481C21.0108 9.47215 21.5186 11.1464 21.5186 12.8591C21.5161 15.1549 20.6029 17.356 18.9795 18.9795C17.356 20.6029 15.1549 21.5161 12.8591 21.5186Z"/>
    </svg>
</svg>