 <svg xmlns="http://www.w3.org/2000/svg" viewBox="0 0 24 24">
    <path d="M9.24728 22.9996H1.91636C1.67333 22.9996 1.44025 22.903 1.2684 22.7312C1.09655 22.5593 1 22.3263 1 22.0832C1 21.8402 1.09655 21.6071 1.2684 21.4352C1.44025 21.2634 1.67333 21.1669 1.91636 21.1669H9.24728C9.49032 21.1669 9.7234 21.2634 9.89525 21.4352C10.0671 21.6071 10.1636 21.8402 10.1636 22.0832C10.1636 22.3263 10.0671 22.5593 9.89525 22.7312C9.7234 22.903 9.49032 22.9996 9.24728 22.9996ZM7.41455 19.3341H1.91636C1.67333 19.3341 1.44025 19.2376 1.2684 19.0657C1.09655 18.8939 1 18.6608 1 18.4178C1 18.1747 1.09655 17.9416 1.2684 17.7698C1.44025 17.5979 1.67333 17.5014 1.91636 17.5014H7.41455C7.65759 17.5014 7.89067 17.5979 8.06252 17.7698C8.23437 17.9416 8.33092 18.1747 8.33092 18.4178C8.33092 18.6608 8.23437 18.8939 8.06252 19.0657C7.89067 19.2376 7.65759 19.3341 7.41455 19.3341ZM5.58182 15.6687H1.91636C1.67333 15.6687 1.44025 15.5721 1.2684 15.4003C1.09655 15.2284 1 14.9953 1 14.7523C1 14.5093 1.09655 14.2762 1.2684 14.1043C1.44025 13.9325 1.67333 13.8359 1.91636 13.8359H5.58182C5.82486 13.8359 6.05794 13.9325 6.22979 14.1043C6.40164 14.2762 6.49819 14.5093 6.49819 14.7523C6.49819 14.9953 6.40164 15.2284 6.22979 15.4003C6.05794 15.5721 5.82486 15.6687 5.58182 15.6687Z" fill="#242626"/>
    <path d="M12.9106 22.9577C12.6676 22.9685 12.4302 22.8823 12.2507 22.7181C12.0712 22.5539 11.9643 22.3251 11.9535 22.0821C11.9427 21.839 12.0288 21.6017 12.193 21.4222C12.3572 21.2427 12.586 21.1357 12.8291 21.1249C14.5632 20.9663 16.2163 20.3167 17.5946 19.2524C18.973 18.1881 20.0195 16.7531 20.6117 15.1154C21.2038 13.4778 21.3171 11.7053 20.9382 10.0056C20.5593 8.30588 19.7039 6.74933 18.4723 5.51824C17.2406 4.28714 15.6837 3.43249 13.9838 3.05438C12.2839 2.67626 10.5115 2.79034 8.8741 3.38325C7.23672 3.97616 5.80218 5.02336 4.7385 6.40218C3.67483 7.78101 3.02606 9.43437 2.86818 11.1686C2.85735 11.2885 2.82302 11.405 2.76714 11.5116C2.71127 11.6182 2.63495 11.7128 2.54254 11.7898C2.45013 11.8669 2.34344 11.9251 2.22856 11.9609C2.11368 11.9968 1.99286 12.0097 1.87301 11.9989C1.75315 11.988 1.6366 11.9537 1.53001 11.8978C1.42342 11.8419 1.32888 11.7656 1.25179 11.6732C1.17469 11.5808 1.11656 11.4741 1.0807 11.3592C1.04483 11.2444 1.03195 11.1235 1.04278 11.0037C1.29835 8.18431 2.63139 5.57211 4.76444 3.71086C6.89748 1.8496 9.66618 0.882679 12.4942 1.01138C15.3222 1.14008 17.9916 2.35448 19.9468 4.4018C21.9019 6.44911 22.9922 9.17159 22.9906 12.0025C23.0047 14.7501 21.9839 17.4023 20.1315 19.4315C18.279 21.4607 15.7306 22.7183 12.9931 22.954C12.9657 22.9566 12.9382 22.9578 12.9106 22.9577Z" fill="#242626"/>
    <path d="M11.9945 6.50781C11.7515 6.50781 11.5184 6.60436 11.3465 6.77621C11.1747 6.94806 11.0781 7.18114 11.0781 7.42418V12.006C11.0782 12.249 11.1748 12.4821 11.3466 12.6539L14.0957 15.403C14.2685 15.5699 14.5 15.6623 14.7403 15.6602C14.9806 15.6581 15.2104 15.5617 15.3803 15.3918C15.5502 15.2219 15.6466 14.9921 15.6487 14.7518C15.6507 14.5115 15.5584 14.2801 15.3915 14.1072L12.9109 11.6266V7.42418C12.9109 7.18114 12.8143 6.94806 12.6425 6.77621C12.4706 6.60436 12.2375 6.50781 11.9945 6.50781Z" fill="#242626"/>
</svg>