<svg width="40" height="40" viewBox="0 0 40 40" xmlns="http://www.w3.org/2000/svg">
<path d="M31.4154 6.46725H21.1948C20.9527 6.46885 20.7134 6.41531 20.495 6.31069L15.5538 3.83068C14.9015 3.50588 14.1829 3.33654 13.4542 3.33594H9.49625C7.42083 3.33842 5.43112 4.16399 3.96357 5.63153C2.49602 7.09908 1.67045 9.08879 1.66797 11.1642L1.66797 29.9521C1.67045 32.0275 2.49602 34.0172 3.96357 35.4848C5.43112 36.9523 7.42083 37.7779 9.49625 37.7804H31.4154C33.4909 37.7779 35.4806 36.9523 36.9481 35.4848C38.4157 34.0172 39.2412 32.0275 39.2437 29.9521V14.2955C39.2412 12.2201 38.4157 10.2304 36.9481 8.76285C35.4806 7.2953 33.4909 6.46974 31.4154 6.46725ZM9.49625 6.46725H13.4542C13.6964 6.46565 13.9357 6.51919 14.1541 6.62382L19.0953 9.09599C19.7469 9.4235 20.4656 9.59553 21.1948 9.59856H31.4154C32.3518 9.60009 33.2663 9.88143 34.0415 10.4065C34.8168 10.9315 35.4175 11.6763 35.7664 12.5451L4.79928 12.7205V11.1642C4.79928 9.91851 5.29414 8.72381 6.17499 7.84296C7.05585 6.96211 8.25054 6.46725 9.49625 6.46725ZM31.4154 34.6491H9.49625C8.25054 34.6491 7.05585 34.1542 6.17499 33.2734C5.29414 32.3925 4.79928 31.1978 4.79928 29.9521V15.8518L36.1124 15.6749V29.9521C36.1124 31.1978 35.6176 32.3925 34.7367 33.2734C33.8559 34.1542 32.6612 34.6491 31.4154 34.6491Z" fill="#242626"/>
</svg>
