<svg xmlns="http://www.w3.org/2000/svg" viewBox="0 0 24 24">
    <path d="M12.136 19.1041C11.6083 19.1035 11.0967 18.9225 10.686 18.5911C9.285 17.4691 6.635 14.7381 6.635 12.4321C6.635 10.5401 8.093 9.0021 9.885 9.0021C10.775 9.0021 11.56 9.32009 12.135 9.85409C12.71 9.32109 13.495 9.0021 14.385 9.0021C16.177 9.0021 17.635 10.5411 17.635 12.4321C17.635 14.7391 14.986 17.4701 13.585 18.5921C13.1746 18.9233 12.6634 19.1033 12.136 19.1041ZM9.885 11.0011C9.196 11.0011 8.635 11.6431 8.635 12.4311C8.635 13.7071 10.552 15.9211 11.936 17.0291C11.9919 17.0761 12.0625 17.1018 12.1355 17.1018C12.2085 17.1018 12.2791 17.0761 12.335 17.0291C13.719 15.9211 15.635 13.7071 15.635 12.4301C15.635 11.6411 15.074 11.0001 14.385 11.0001C13.763 11.0001 13.135 11.3741 13.135 12.2091C13.135 12.4743 13.0296 12.7287 12.8421 12.9162C12.6546 13.1037 12.4002 13.2091 12.135 13.2091C11.8698 13.2091 11.6154 13.1037 11.4279 12.9162C11.2404 12.7287 11.135 12.4743 11.135 12.2091C11.135 11.3161 10.461 11.0001 9.885 11.0001V11.0011ZM19 24.0011H5C2.243 24.0011 0 21.7581 0 19.0011V9.72509C0 8.06109 0.823 6.51209 2.203 5.58009L9.203 0.856095C10.0283 0.295702 11.0029 -0.00390625 12.0005 -0.00390625C12.9981 -0.00390625 13.9727 0.295702 14.798 0.856095L21.798 5.57909C22.4766 6.03666 23.0323 6.654 23.4163 7.37678C23.8003 8.09957 24.0007 8.90565 24 9.72409V19.0001C24 21.7571 21.757 24.0011 19 24.0011ZM12.001 1.99909C11.416 1.99909 10.832 2.17109 10.322 2.51509L3.322 7.23809C2.91467 7.51252 2.58106 7.88288 2.35053 8.31656C2.12 8.75024 1.99962 9.23395 2 9.72509V19.0011C2 20.6551 3.346 22.0011 5 22.0011H19C20.654 22.0011 22 20.6551 22 19.0011V9.72509C22 8.7261 21.506 7.79609 20.679 7.23809L13.679 2.51509C13.1837 2.1794 12.5993 1.99969 12.001 1.99909Z" fill="#242626"/>
</svg>