<svg xmlns="http://www.w3.org/2000/svg" viewBox="0 0 24 24">
    <path d="M19 5H16.923C16.7561 4.05572 16.3209 3.17944 15.6694 2.47581C15.0179 1.77219 14.1777 1.27096 13.249 1.032C12.9923 0.965961 12.7198 1.00461 12.4916 1.13945C12.2634 1.27429 12.098 1.49427 12.032 1.751C11.966 2.00773 12.0046 2.28018 12.1395 2.50841C12.2743 2.73664 12.4943 2.90196 12.751 2.968C13.3951 3.13436 13.9656 3.51014 14.3727 4.03621C14.7798 4.56228 15.0005 5.20879 15 5.874V17H4C2.897 17 2 16.103 2 15V11H4.5C4.76522 11 5.01957 10.8946 5.20711 10.7071C5.39464 10.5196 5.5 10.2652 5.5 10C5.5 9.73478 5.39464 9.48043 5.20711 9.29289C5.01957 9.10536 4.76522 9 4.5 9H2C0.897 9 0 9.897 0 11V15C0.0011783 15.8962 0.302776 16.7662 0.856585 17.4708C1.41039 18.1754 2.18444 18.6741 3.055 18.887C2.96615 19.3905 2.98853 19.9073 3.12059 20.4011C3.25265 20.895 3.49118 21.354 3.81945 21.7459C4.14772 22.1379 4.55777 22.4532 5.02084 22.6698C5.4839 22.8865 5.98877 22.9992 6.5 23C7.00158 22.9992 7.49714 22.8907 7.95318 22.6819C8.40922 22.473 8.81512 22.1687 9.14342 21.7895C9.47172 21.4103 9.71479 20.965 9.85618 20.4838C9.99757 20.0025 10.034 19.4965 9.963 19H14.037C13.966 19.4965 14.0024 20.0025 14.1438 20.4838C14.2852 20.965 14.5283 21.4103 14.8566 21.7895C15.1849 22.1687 15.5908 22.473 16.0468 22.6819C16.5029 22.8907 16.9984 22.9992 17.5 23C18.0112 22.9992 18.5161 22.8865 18.9792 22.6698C19.4422 22.4532 19.8523 22.1379 20.1805 21.7459C20.5088 21.354 20.7473 20.895 20.8794 20.4011C21.0115 19.9073 21.0339 19.3905 20.945 18.887C21.8156 18.6741 22.5896 18.1754 23.1434 17.4708C23.6972 16.7662 23.9988 15.8962 24 15V10C24 7.243 21.757 5 19 5ZM22 10V11H17V7H19C20.654 7 22 8.346 22 10ZM8 19.5C8 20.327 7.327 21 6.5 21C5.673 21 5 20.327 5 19.5C5 19.311 5.037 19.144 5.091 19H7.91C7.964 19.144 8.001 19.311 8.001 19.5H8ZM17.5 21C16.673 21 16 20.327 16 19.5C16 19.311 16.037 19.144 16.091 19H18.91C18.964 19.144 19.001 19.311 19.001 19.5C19.001 20.327 18.327 21 17.5 21ZM20 17H17V13H22V15C22 16.103 21.103 17 20 17ZM0 2C0 1.73478 0.105357 1.48043 0.292893 1.29289C0.48043 1.10536 0.734784 1 1 1H9.154C9.41922 1 9.67357 1.10536 9.86111 1.29289C10.0486 1.48043 10.154 1.73478 10.154 2C10.154 2.26522 10.0486 2.51957 9.86111 2.70711C9.67357 2.89464 9.41922 3 9.154 3H1C0.734784 3 0.48043 2.89464 0.292893 2.70711C0.105357 2.51957 0 2.26522 0 2ZM0 6C0 5.73478 0.105357 5.48043 0.292893 5.29289C0.48043 5.10536 0.734784 5 1 5H7.154C7.41922 5 7.67357 5.10536 7.86111 5.29289C8.04864 5.48043 8.154 5.73478 8.154 6C8.154 6.26522 8.04864 6.51957 7.86111 6.70711C7.67357 6.89464 7.41922 7 7.154 7H1C0.734784 7 0.48043 6.89464 0.292893 6.70711C0.105357 6.51957 0 6.26522 0 6Z" fill="#242626"/>
</svg>