<svg xmlns="http://www.w3.org/2000/svg" viewBox="0 0 24 24">
    <path d="M22.6028 0.305131C21.8958 -0.103869 21.0779 -0.100869 20.4188 0.309131C17.8368 1.91113 15.3328 2.07513 12.9108 2.23413C10.1678 2.41413 7.33085 2.60013 4.91385 5.01713C3.96115 5.96232 3.21147 7.09207 2.71075 8.33718C2.21002 9.58229 1.9688 10.9165 2.00185 12.2581C2.04402 14.4791 2.8363 16.6205 4.24985 18.3341L0.292849 22.2911C0.105341 22.4786 0 22.733 0 22.9981C0 23.2633 0.105341 23.5176 0.292849 23.7051C0.480357 23.8926 0.734673 23.998 0.999849 23.998C1.26503 23.998 1.51934 23.8926 1.70685 23.7051L5.66285 19.7491C7.37345 21.1483 9.51791 21.9082 11.7278 21.8981C12.0318 21.8981 12.3378 21.8851 12.6458 21.8571C15.6428 21.5901 18.4178 20.0451 20.2618 17.6161C22.5268 14.6301 23.7838 9.64513 23.9988 2.79913C24.0289 1.80613 23.4678 0.803131 22.6018 0.304131L22.6028 0.305131ZM18.6688 16.4081C17.1658 18.3881 14.9058 19.6491 12.4688 19.8661C10.2518 20.0631 8.15985 19.3661 6.57285 17.9061C5.77994 17.1826 5.14297 16.3048 4.7009 15.3267C4.25884 14.3485 4.02097 13.2904 4.00185 12.2171C3.97573 11.1452 4.16853 10.0792 4.56847 9.08438C4.9684 8.08953 5.56707 7.18671 6.32785 6.43113C8.21285 4.54613 10.4508 4.39913 13.0418 4.23013C15.5848 4.06313 18.4669 3.87413 21.4739 2.00813C21.4823 2.0022 21.4925 1.99905 21.5028 1.99913C21.5229 1.99913 21.5528 2.00713 21.6038 2.03713C21.8018 2.15113 22.0098 2.45213 21.9998 2.73713C21.8018 9.06913 20.6498 13.7961 18.6688 16.4071V16.4081ZM14.4438 7.99813C13.6848 7.99813 13.0108 8.25313 12.4998 8.68613C11.9544 8.23275 11.2651 7.9888 10.5558 7.99813C8.93285 7.99813 7.61185 9.38913 7.61185 11.0981C7.61185 13.6531 11.0168 16.4101 11.1628 16.5271C11.5568 16.8421 12.0288 17.0001 12.5008 17.0001C12.9728 17.0001 13.4448 16.8421 13.8388 16.5271C13.9838 16.4111 17.3909 13.6541 17.3909 11.0981C17.3909 9.38913 16.0698 7.99813 14.4458 7.99813H14.4438ZM12.5878 14.9661C12.5632 14.9868 12.532 14.9981 12.4998 14.9981C12.4677 14.9981 12.4365 14.9868 12.4118 14.9661C11.0588 13.8821 9.61085 12.0701 9.61085 11.0981C9.61085 10.4921 10.0348 9.99813 10.5548 9.99813C10.9908 9.99813 11.4988 10.2361 11.4988 10.9071C11.4988 11.1723 11.6042 11.4267 11.7917 11.6142C11.9793 11.8018 12.2336 11.9071 12.4988 11.9071C12.7641 11.9071 13.0184 11.8018 13.206 11.6142C13.3935 11.4267 13.4988 11.1723 13.4988 10.9071C13.4988 10.2361 14.0078 9.99813 14.4428 9.99813C14.9638 9.99813 15.3878 10.4921 15.3878 11.0981C15.3878 12.0701 13.9398 13.8831 12.5858 14.9661H12.5878Z" fill="#242626"/>
</svg>