    <svg id="favorites" xmlns="http://www.w3.org/2000/svg" viewBox="0 0 30 30">
        <path d="M25.9111 6.05778C23.0834 3.31445 18.4833 3.31445 15.6564 6.05778L14.9998 6.69459L14.3435 6.05778C11.5166 3.31407 6.91612 3.31407 4.08918 6.05778C1.31963 8.74541 1.30165 13.0056 4.04747 15.9676C6.55185 18.6683 13.9379 24.5028 14.2513 24.7498C14.4555 24.9114 14.711 24.9995 14.9745 24.9993L14.9994 24.9989C15.2626 25.0108 15.5278 24.9232 15.7474 24.7498C16.0608 24.5028 23.4477 18.6683 25.9528 15.9673C28.6983 13.0056 28.6803 8.74541 25.9111 6.05778ZM24.2462 14.4771C22.2936 16.5822 16.9264 20.9237 14.9994 22.4643C13.0724 20.924 7.70627 16.5829 5.75404 14.4775C3.83855 12.4115 3.82056 9.46911 5.71233 7.6333C6.6785 6.69608 7.94733 6.2271 9.21616 6.2271C10.485 6.2271 11.7538 6.69571 12.72 7.6333L14.1633 9.03392C14.3304 9.19516 14.546 9.30062 14.779 9.33507C14.9669 9.37459 15.162 9.36776 15.3465 9.31522C15.531 9.26268 15.699 9.16609 15.8351 9.0343L17.2791 7.6333C19.2119 5.75849 22.3556 5.75886 24.2872 7.6333C26.179 9.46911 26.161 12.4115 24.2462 14.4771Z"/>
        <path d="M16.0396 0C15.0078 0.0148624 13.9985 0.281596 13.1137 0.773264C12.2288 1.26493 11.4997 1.96412 11 2.80023C10.5003 1.96412 9.77118 1.26493 8.88632 0.773264C8.00146 0.281596 6.99216 0.0148624 5.96037 0C4.31556 0.0661794 2.76589 0.732519 1.64991 1.85344C0.533927 2.97436 -0.0576437 4.45875 0.00443589 5.98231C0.00443589 11.7313 10.0434 18.3712 10.4704 18.6529L11 19L11.5296 18.6529C11.9566 18.3729 21.9956 11.7313 21.9956 5.98231C22.0576 4.45875 21.4661 2.97436 20.3501 1.85344C19.2341 0.732519 17.6844 0.0661794 16.0396 0Z"/>

    </svg>