<svg xmlns="http://www.w3.org/2000/svg" width="40" height="40" viewBox="0 0 40 40" fill="none">
<g clip-path="url(#clip0_1316_172154)">
   <path d="M14.1654 15.8372C14.1654 16.7555 14.3788 17.6255 14.7588 18.3989C13.9164 19.4778 13.4295 20.7916 13.3654 22.1589C11.7385 20.4571 10.831 18.1932 10.8321 15.8389C10.834 14.4715 11.1413 13.1218 11.7315 11.8883C12.3217 10.6548 13.1799 9.5687 14.2435 8.70925C15.3071 7.84981 16.5491 7.23873 17.879 6.92062C19.2089 6.60251 20.5931 6.5854 21.9304 6.87055C25.4004 7.58388 28.2121 10.3789 28.9521 13.8439C29.1754 14.8905 29.2171 15.9155 29.1038 16.8955C29.0508 17.2976 28.8526 17.6663 28.5465 17.9322C28.2404 18.1981 27.8475 18.3428 27.4421 18.3389H27.3671C26.3804 18.3389 25.6871 17.4605 25.7954 16.4805C25.9581 15.0687 25.5976 13.6461 24.7822 12.4821C23.9667 11.3181 22.7529 10.4933 21.3704 10.1639C20.5121 9.95827 19.6183 9.9497 18.7562 10.1388C17.8941 10.328 17.086 10.7099 16.3926 11.2559C15.6992 11.802 15.1384 12.498 14.7524 13.2917C14.3664 14.0854 14.1651 14.9563 14.1638 15.8389L14.1654 15.8372ZM7.68208 13.6789C8.14185 11.0078 9.46573 8.56143 11.4504 6.71555C13.9988 4.32722 17.3354 3.14722 20.8338 3.36388C27.4221 3.79055 32.5738 9.56222 32.4971 16.4722C32.4654 19.3655 30.0421 21.6689 27.1504 21.6689H23.1404C22.9183 20.8981 22.4249 20.2337 21.7512 19.7982C21.0775 19.3627 20.2691 19.1856 19.4751 19.2995C18.681 19.4135 17.955 19.8107 17.431 20.4181C16.9069 21.0254 16.6202 21.8017 16.6238 22.6039C16.6238 23.4879 16.9749 24.3358 17.6001 24.9609C18.2252 25.586 19.073 25.9372 19.9571 25.9372C20.8538 25.9372 21.6654 25.5789 22.2638 25.0022H27.1504C31.8488 25.0022 35.7638 21.2605 35.8304 16.5639C35.9538 7.86222 29.4171 0.578883 21.0488 0.0388834C18.883 -0.113905 16.7091 0.184652 14.6647 0.915653C12.6203 1.64665 10.75 2.79417 9.17208 4.28555C6.68481 6.62436 5.01643 9.70166 4.41375 13.0622C4.37346 13.3015 4.38593 13.5468 4.45027 13.7808C4.51461 14.0148 4.62928 14.2319 4.78626 14.417C4.94325 14.6021 5.13875 14.7506 5.35912 14.8523C5.57949 14.9539 5.8194 15.0062 6.06208 15.0056C6.84875 15.0056 7.55042 14.4572 7.68208 13.6805V13.6789ZM19.9988 28.3372C13.8404 28.3372 8.51208 32.1572 6.74042 37.8405C6.6751 38.0496 6.65161 38.2694 6.6713 38.4875C6.69099 38.7056 6.75346 38.9177 6.85516 39.1116C6.95685 39.3056 7.09576 39.4776 7.26396 39.6178C7.43216 39.758 7.62635 39.8637 7.83542 39.9289C8.25734 40.0575 8.71297 40.0148 9.10356 39.8098C9.49415 39.6048 9.78824 39.2542 9.92208 38.8339C11.2371 34.6172 15.3788 31.6706 19.9971 31.6706C24.6154 31.6706 28.7588 34.6172 30.0721 38.8339C30.2038 39.256 30.4978 39.6085 30.8895 39.8139C31.2811 40.0192 31.7383 40.0606 32.1604 39.9289C32.5826 39.7972 32.9351 39.5031 33.1404 39.1115C33.3458 38.7199 33.3871 38.2627 33.2554 37.8405C31.4838 32.1572 26.1554 28.3372 19.9971 28.3372H19.9988Z" fill="#242626"/>
</g>
<defs>
<clipPath id="clip0_1316_172154">
  <rect width="40" height="40" fill="white"/>
</clipPath>
</defs>
</svg>
