<svg xmlns="http://www.w3.org/2000/svg" viewBox="0 0 30 30">
    <path d="M27.6961 26.1656L21.235 19.7045C22.9958 17.551 23.8615 14.8033 23.653 12.0295C23.4446 9.25566 22.1781 6.66808 20.1153 4.80194C18.0526 2.93579 15.3515 1.93386 12.5708 2.00339C9.79002 2.07292 7.14238 3.20858 5.17548 5.17548C3.20858 7.14238 2.07292 9.79002 2.00339 12.5708C1.93386 15.3515 2.93579 18.0526 4.80194 20.1153C6.66808 22.1781 9.25566 23.4446 12.0295 23.653C14.8033 23.8615 17.551 22.9958 19.7045 21.235L26.1656 27.6961C26.3697 27.8933 26.6431 28.0024 26.927 28C27.2108 27.9975 27.4823 27.8837 27.683 27.683C27.8837 27.4823 27.9975 27.2108 28 26.927C28.0024 26.6431 27.8933 26.3697 27.6961 26.1656ZM12.8591 21.5186C11.1464 21.5186 9.47215 21.0108 8.0481 20.0592C6.62404 19.1077 5.51412 17.7553 4.8587 16.173C4.20328 14.5906 4.03179 12.8495 4.36593 11.1697C4.70006 9.4899 5.5248 7.94692 6.73586 6.73586C7.94692 5.5248 9.4899 4.70006 11.1697 4.36593C12.8495 4.03179 14.5906 4.20328 16.173 4.8587C17.7553 5.51412 19.1077 6.62404 20.0592 8.0481C21.0108 9.47215 21.5186 11.1464 21.5186 12.8591C21.5161 15.1549 20.6029 17.356 18.9795 18.9795C17.356 20.6029 15.1549 21.5161 12.8591 21.5186Z"/>
</svg>