<svg  xmlns="http://www.w3.org/2000/svg" viewBox="0 0 24 24">
    <path d="M17.9954 2.28442C16.7748 1.19397 15.28 0.457007 13.6717 0.152855C12.0635 -0.151297 10.4028 -0.0111266 8.86825 0.558283C7.33375 1.12769 5.98357 2.10478 4.96302 3.3844C3.94248 4.66401 3.2902 6.1977 3.07639 7.82042C2.88437 9.24327 3.03794 10.6914 3.52411 12.0424C4.01028 13.3933 4.81473 14.6072 5.86939 15.5814C6.52159 16.1534 7.04787 16.8545 7.41488 17.6405C7.78188 18.4265 7.98161 19.2802 8.00139 20.1474V20.3084C8.00245 21.2867 8.39156 22.2247 9.08334 22.9165C9.77512 23.6083 10.7131 23.9974 11.6914 23.9984H12.3114C13.2897 23.9974 14.2277 23.6083 14.9194 22.9165C15.6112 22.2247 16.0003 21.2867 16.0014 20.3084V19.7594C16.0164 18.9929 16.1967 18.2386 16.5302 17.5483C16.8636 16.8579 17.3423 16.2477 17.9334 15.7594C18.892 14.9199 19.6612 13.8862 20.1902 12.7269C20.7191 11.5676 20.9957 10.3091 21.0015 9.0349C21.0074 7.76065 20.7424 6.49969 20.2242 5.33558C19.7059 4.17147 18.9462 3.13076 17.9954 2.28242V2.28442ZM12.3114 21.9984H11.6914C11.2433 21.9979 10.8138 21.8197 10.497 21.5028C10.1801 21.186 10.0019 20.7565 10.0014 20.3084C10.0014 20.3084 9.99439 20.0484 9.99339 19.9984H14.0014V20.3084C14.0009 20.7565 13.8226 21.186 13.5058 21.5028C13.189 21.8197 12.7594 21.9979 12.3114 21.9984ZM16.6114 14.2574C15.4728 15.245 14.6506 16.5462 14.2474 17.9984H13.0014V10.8144C13.5843 10.6083 14.0893 10.2272 14.4473 9.72312C14.8053 9.21905 14.9988 8.61668 15.0014 7.99842C15.0014 7.73321 14.896 7.47885 14.7085 7.29132C14.521 7.10378 14.2666 6.99842 14.0014 6.99842C13.7362 6.99842 13.4818 7.10378 13.2943 7.29132C13.1068 7.47885 13.0014 7.73321 13.0014 7.99842C13.0014 8.26364 12.896 8.51799 12.7085 8.70553C12.521 8.89307 12.2666 8.99842 12.0014 8.99842C11.7362 8.99842 11.4818 8.89307 11.2943 8.70553C11.1068 8.51799 11.0014 8.26364 11.0014 7.99842C11.0014 7.73321 10.896 7.47885 10.7085 7.29132C10.521 7.10378 10.2666 6.99842 10.0014 6.99842C9.73618 6.99842 9.48182 7.10378 9.29429 7.29132C9.10675 7.47885 9.00139 7.73321 9.00139 7.99842C9.00396 8.61668 9.19748 9.21905 9.55548 9.72312C9.91348 10.2272 10.4185 10.6083 11.0014 10.8144V17.9984H9.67939C9.22838 16.5076 8.38251 15.1666 7.23139 14.1174C6.25435 13.207 5.55812 12.0361 5.22486 10.7429C4.89161 9.4497 4.93524 8.08814 5.3506 6.81892C5.76597 5.54969 6.53573 4.42577 7.56906 3.57979C8.60239 2.7338 9.85615 2.20106 11.1824 2.04442C11.4573 2.01373 11.7338 1.99838 12.0104 1.99842C13.728 1.99332 15.3861 2.62705 16.6624 3.77642C17.4021 4.43602 17.9931 5.24531 18.3963 6.15065C18.7995 7.05599 19.0057 8.03669 19.0012 9.02774C18.9966 10.0188 18.7815 10.9976 18.37 11.8992C17.9585 12.8008 17.3601 13.6046 16.6144 14.2574H16.6114Z" fill="#242626"/>
</svg>