<svg xmlns="http://www.w3.org/2000/svg" viewBox="0 0 24 24">
    <path d="M20 13H18.778L19.828 11.95C20.584 11.195 21 10.19 21 9.121C21 8.052 20.584 7.048 19.828 6.293L17.707 4.172C16.196 2.66 13.561 2.661 12.05 4.172L11 5.222V4C11 1.794 9.206 0 7 0H4C1.794 0 0 1.794 0 4V18.5C0 21.533 2.467 24 5.5 24H20C22.206 24 24 22.206 24 20V17C24 14.794 22.206 13 20 13ZM13.464 5.586C14.219 4.831 15.536 4.83 16.293 5.586L18.414 7.707C18.792 8.085 19 8.587 19 9.121C19 9.655 18.792 10.158 18.414 10.536L11 17.95V8.05L13.464 5.586ZM2 8H9V12H2V8ZM4 2H7C8.103 2 9 2.897 9 4V6H2V4C2 2.897 2.897 2 4 2ZM2 18.5V14H9V18.5C9 20.43 7.43 22 5.5 22C3.57 22 2 20.43 2 18.5ZM22 20C22 21.103 21.103 22 20 22H9.778L16.778 15H20C21.103 15 22 15.897 22 17V20ZM5.5 20C5.30295 19.9999 5.10785 19.9611 4.92582 19.8856C4.7438 19.8101 4.57842 19.6995 4.43913 19.5602C4.29984 19.4208 4.18937 19.2553 4.11403 19.0733C4.03868 18.8912 3.99993 18.696 4 18.499C4.00007 18.302 4.03894 18.1068 4.11441 17.9248C4.18988 17.7428 4.30046 17.5774 4.43984 17.4381C4.57922 17.2988 4.74467 17.1884 4.92675 17.113C5.10882 17.0377 5.30395 16.9989 5.501 16.999C5.89896 16.9991 6.28056 17.1573 6.56187 17.4388C6.84317 17.7203 7.00113 18.102 7.001 18.5C7.00087 18.898 6.84265 19.2796 6.56116 19.5609C6.27967 19.8422 5.89796 20.0001 5.5 20Z" fill="#242626"/>
</svg>