<svg xmlns="http://www.w3.org/2000/svg" viewBox="0 0 14 14">
    <path fill="#989898" d="M7 0C5.61553 0 4.26215 0.410543 3.11101 1.17971C1.95987 1.94888 1.06266 3.04213 0.532846 4.32122C0.003033 5.6003 -0.13559 7.00776 0.134506 8.36563C0.404603 9.7235 1.07129 10.9708 2.05026 11.9497C3.02922 12.9287 4.2765 13.5954 5.63437 13.8655C6.99224 14.1356 8.3997 13.997 9.67879 13.4672C10.9579 12.9373 12.0511 12.0401 12.8203 10.889C13.5895 9.73785 14 8.38447 14 7C13.998 5.1441 13.2599 3.36479 11.9475 2.05247C10.6352 0.74015 8.8559 0.0020073 7 0ZM7 12.8333C5.84628 12.8333 4.71846 12.4912 3.75918 11.8502C2.79989 11.2093 2.05222 10.2982 1.61071 9.23232C1.16919 8.16642 1.05368 6.99353 1.27876 5.86197C1.50384 4.73042 2.05941 3.69102 2.87521 2.87521C3.69102 2.0594 4.73042 1.50383 5.86198 1.27875C6.99353 1.05367 8.16642 1.16919 9.23232 1.6107C10.2982 2.05221 11.2093 2.79989 11.8502 3.75917C12.4912 4.71846 12.8333 5.84627 12.8333 7C12.8316 8.54657 12.2165 10.0293 11.1229 11.1229C10.0293 12.2165 8.54658 12.8316 7 12.8333Z"/>
    <path fill="#989898" d="M7.0026 5.83594H6.41927C6.26456 5.83594 6.11619 5.8974 6.00679 6.00679C5.8974 6.11619 5.83594 6.26456 5.83594 6.41927C5.83594 6.57398 5.8974 6.72235 6.00679 6.83175C6.11619 6.94115 6.26456 7.0026 6.41927 7.0026H7.0026V10.5026C7.0026 10.6573 7.06406 10.8057 7.17346 10.9151C7.28285 11.0245 7.43123 11.0859 7.58594 11.0859C7.74065 11.0859 7.88902 11.0245 7.99842 10.9151C8.10781 10.8057 8.16927 10.6573 8.16927 10.5026V7.0026C8.16927 6.69318 8.04635 6.39644 7.82756 6.17765C7.60877 5.95885 7.31202 5.83594 7.0026 5.83594Z"/>
    <path fill="#989898" d="M7 4.66406C7.48325 4.66406 7.875 4.27231 7.875 3.78906C7.875 3.30581 7.48325 2.91406 7 2.91406C6.51675 2.91406 6.125 3.30581 6.125 3.78906C6.125 4.27231 6.51675 4.66406 7 4.66406Z"/>
</svg>