<svg xmlns="http://www.w3.org/2000/svg" width="110" height="28" viewBox="0 0 110 28" fill="none">
<g clip-path="url(#clip0_8_65726)">
<path d="M7.93369 21.5C12.0651 21.5 15.4143 18.1421 15.4143 14C15.4143 9.85786 12.0651 6.5 7.93369 6.5C3.80229 6.5 0.453125 9.85786 0.453125 14C0.453125 18.1421 3.80229 21.5 7.93369 21.5Z" fill="#CE2457"/>
<path fill-rule="evenodd" clip-rule="evenodd" d="M7.56504 9.48835C5.24585 9.6785 3.42285 11.6259 3.42285 14.0001C3.42285 16.5003 5.44441 18.5271 7.93809 18.5271C10.4318 18.5271 12.4533 16.5003 12.4533 14.0001C12.4533 11.6256 10.6299 9.67806 8.31034 9.48828L8.18869 12.4617C8.92804 12.5819 9.49254 13.2249 9.49254 14.0001C9.49254 14.8608 8.79657 15.5586 7.93809 15.5586C7.07956 15.5586 6.38359 14.8608 6.38359 14.0001C6.38359 13.2251 6.94771 12.5823 7.6867 12.4619L7.56504 9.48835Z" fill="white"/>
<path d="M7.93261 9.17302C8.47086 9.17302 8.90721 8.73554 8.90721 8.19588C8.90721 7.65623 8.47086 7.21875 7.93261 7.21875C7.39435 7.21875 6.95801 7.65623 6.95801 8.19588C6.95801 8.73554 7.39435 9.17302 7.93261 9.17302Z" fill="white"/>
<path d="M25.6015 13.9989C25.6015 15.0319 25.2246 15.8663 24.5128 16.5417C23.8009 17.2171 22.9215 17.535 21.8746 17.535C20.8277 17.535 19.9902 17.2171 19.2364 16.5417C18.5664 15.8663 18.1895 15.0319 18.1895 13.9989C18.1895 12.9659 18.5664 12.1316 19.2782 11.4562C19.9902 10.7807 20.8695 10.4629 21.8746 10.4629C22.8796 10.4629 23.8009 10.7807 24.5128 11.4562C25.2246 12.1316 25.6015 12.9659 25.6015 13.9989ZM24.2196 13.9989C24.2196 13.403 24.0102 12.8865 23.5496 12.4891C23.1308 12.0918 22.5446 11.8932 21.8746 11.8932C21.2046 11.8932 20.6602 12.0918 20.1995 12.4891C19.7389 12.8865 19.5295 13.403 19.5295 13.9989C19.5295 14.5949 19.7389 15.1114 20.1995 15.5087C20.6183 15.906 21.2046 16.1047 21.8746 16.1047C22.5446 16.1047 23.1308 15.906 23.5496 15.5087C24.0102 15.1114 24.2196 14.5949 24.2196 13.9989Z" fill="#242626"/>
<path d="M30.0233 17.2177H28.4739V12.0129H26.0869V10.7812H32.3683V12.0129H30.0233V17.2177Z" fill="#242626"/>
<path d="M35.8382 17.3773C34.7495 17.3773 33.8701 17.2184 33.1582 16.9005V15.6291C33.9538 15.9867 34.7913 16.1456 35.6289 16.1456C36.257 16.1456 36.7177 16.0662 37.0945 15.9072C37.4295 15.7483 37.6389 15.5099 37.6389 15.2318C37.6389 14.6756 37.1364 14.4372 36.0895 14.4372H34.7913V13.285H36.0895C36.9689 13.285 37.3877 13.0466 37.3877 12.5699C37.3877 12.0534 36.8014 11.8149 35.6708 11.8149C34.917 11.8149 34.1632 11.9739 33.3676 12.2918V11.0601C34.0795 10.782 34.9589 10.623 36.0058 10.623C36.8433 10.623 37.5552 10.782 38.1414 11.0998C38.6858 11.4177 38.979 11.8547 38.979 12.3315C38.979 13.0466 38.6021 13.5234 37.8902 13.7618C38.7696 14.0399 39.2302 14.5564 39.2302 15.351C39.2302 15.947 38.9371 16.4634 38.309 16.8211C37.6808 17.2184 36.8433 17.3773 35.8382 17.3773Z" fill="#242626"/>
<path d="M47.6804 13.9989C47.6804 15.0319 47.3036 15.8663 46.5917 16.5417C45.8798 17.2171 45.0004 17.535 43.9535 17.535C42.9066 17.535 42.0691 17.2171 41.3153 16.5417C40.6034 15.8663 40.2266 15.0319 40.2266 13.9989C40.2266 12.9659 40.6034 12.1316 41.3153 11.4562C42.0691 10.7807 42.9485 10.4629 43.9954 10.4629C45.0423 10.4629 45.9217 10.7807 46.6336 11.4562C47.3036 12.1316 47.6804 12.9659 47.6804 13.9989ZM46.3404 13.9989C46.3404 13.403 46.1311 12.8865 45.6704 12.4891C45.2517 12.0918 44.6654 11.8932 43.9954 11.8932C43.3254 11.8932 42.781 12.0918 42.3204 12.4891C41.8597 12.8865 41.6503 13.403 41.6503 13.9989C41.6503 14.5949 41.8597 15.1114 42.3204 15.5087C42.7391 15.906 43.3254 16.1047 43.9954 16.1047C44.6654 16.1047 45.2517 15.906 45.6704 15.5087C46.0892 15.1114 46.3404 14.5949 46.3404 13.9989Z" fill="#242626"/>
<path d="M53.1234 17.2177H49.0615V10.7812H52.914C53.584 10.7812 54.1282 10.9402 54.5471 11.2183C54.966 11.4964 55.1334 11.9334 55.1334 12.4102C55.1334 12.7281 55.0497 13.0062 54.8818 13.2446C54.7145 13.4829 54.505 13.6816 54.2119 13.8008C55.1334 14.0392 55.5939 14.5954 55.5939 15.4695C55.5939 16.0257 55.3844 16.4627 54.9239 16.7806C54.505 17.0587 53.9187 17.2177 53.1234 17.2177ZM50.6109 11.9334V13.3637H52.5372C52.8719 13.3637 53.1234 13.2843 53.3324 13.1651C53.5003 13.0459 53.6256 12.8473 53.6256 12.6486C53.6256 12.1718 53.2908 11.9334 52.5788 11.9334H50.6109ZM50.6109 14.4762V16.0655H52.8303C53.2071 16.0655 53.4582 15.986 53.6677 15.8668C53.8771 15.7079 53.9608 15.5489 53.9608 15.2708C53.9608 15.0324 53.8771 14.8338 53.6677 14.6749C53.4582 14.516 53.1651 14.4762 52.8303 14.4762H50.6109Z" fill="#242626"/>
<path d="M58.4823 17.2138H57.0166V10.7773H58.566V15.1477L62.3769 10.7773H63.8426V17.2138H62.2932V12.8434L58.4823 17.2138Z" fill="#242626"/>
<path d="M67.0035 17.2138H65.4541V10.7773H67.0035V17.2138Z" fill="#242626"/>
<path d="M68.6382 13.8776L71.7422 17.1753H69.7383L66.791 13.9571L69.542 10.8184H71.4673L68.6382 13.8776Z" fill="#242626"/>
</g>
<defs>
<clipPath id="clip0_8_65726">
<rect width="72" height="15" fill="white" transform="translate(0 6.5)"/>
</clipPath>
</defs>
</svg>