<svg xmlns="http://www.w3.org/2000/svg" width="110" height="28" viewBox="0 0 110 28" fill="none">
<path d="M8.9999 5.75C7.66537 5.7507 6.36098 6.14689 5.25149 6.88852C4.142 7.63015 3.27719 8.68396 2.76629 9.91682C2.25539 11.1497 2.12133 12.5063 2.38103 13.8153C2.64072 15.1244 3.28254 16.327 4.2254 17.2715C5.4479 18.494 8.3249 20.2625 8.49515 22.1203C8.52065 22.3977 8.7224 22.625 8.9999 22.625C9.2774 22.625 9.4799 22.3977 9.50465 22.1203C9.6749 20.2625 12.5496 18.497 13.7714 17.2753C14.7154 16.3312 15.3582 15.1284 15.6188 13.819C15.8793 12.5097 15.7458 11.1524 15.2351 9.91893C14.7244 8.68541 13.8595 7.63099 12.7497 6.88895C11.6399 6.14691 10.3349 5.75056 8.9999 5.75ZM8.9999 14.8092C8.69664 14.8093 8.39636 14.7495 8.11619 14.6335C7.83601 14.5174 7.58144 14.3473 7.36701 14.1329C7.15258 13.9185 6.98248 13.6639 6.86643 13.3837C6.75038 13.1035 6.69065 12.8033 6.69065 12.5C6.69065 12.1967 6.75038 11.8965 6.86643 11.6163C6.98248 11.3361 7.15258 11.0815 7.36701 10.8671C7.58144 10.6527 7.83601 10.4826 8.11619 10.3665C8.39636 10.2505 8.69664 10.1908 8.9999 10.1908C9.61235 10.1908 10.1997 10.434 10.6328 10.8671C11.0659 11.3002 11.3091 11.8875 11.3091 12.5C11.3091 13.1125 11.0659 13.6998 10.6328 14.1329C10.1997 14.566 9.61235 14.8092 8.9999 14.8092Z" fill="#FF4433"/>
<path d="M48.6541 19.6452V18.3288C48.1565 18.6681 47.3227 18.9667 46.5427 18.9667C45.3727 18.9667 44.9289 18.4102 44.8617 17.2702H48.7213V16.4152C48.7213 14.0402 47.6858 13.1445 46.0855 13.1445C44.1355 13.1445 43.2075 14.651 43.2075 16.7138C43.2075 19.0888 44.3641 20.2424 46.4082 20.2424C47.4303 20.2424 48.1834 19.971 48.6541 19.6452ZM58.6596 20.2424C59.3993 20.2424 59.9237 20.1067 60.3137 19.8217V18.5052C59.9103 18.7902 59.4261 18.9667 58.7537 18.9667C57.6106 18.9667 57.1399 18.071 57.1399 16.6595C57.1399 15.1802 57.7182 14.4202 58.7672 14.4202C59.3858 14.4202 59.991 14.6374 60.3137 14.841V13.4702C59.9775 13.2802 59.3858 13.1445 58.5924 13.1445C56.5482 13.1445 55.4858 14.6238 55.4858 16.7002C55.4858 18.9802 56.5213 20.2424 58.6596 20.2424ZM33.9955 13.2802V15.981H31.8572V13.2802H30.2568V20.1067H31.8572V17.2567H33.9955V20.1067H35.5958V13.2802H33.9955ZM42.8175 18.831H42.1048V13.2802H37.4382V13.8638C37.4382 15.5331 37.3306 17.691 36.7658 18.831H36.2682V21.6674H37.7475V20.1067H41.3382V21.6674H42.8175V18.831ZM53.7644 20.1067H55.5799L53.0113 16.4288L55.2706 13.2802H53.6568L51.3975 16.4288V13.2802H49.7972V20.1067H51.3975V16.7545L53.7644 20.1067ZM46.0586 14.4202C46.852 14.4202 47.0941 15.0852 47.0941 15.9402V16.076H44.8617C44.902 14.9902 45.292 14.4202 46.0586 14.4202ZM40.5044 18.831H38.2451C38.6889 17.7995 38.8099 15.9402 38.8099 14.7595V14.556H40.5044V18.831Z" fill="#242626"/>
<path d="M68.6669 20.1079H70.5631L67.228 15.1408L70.348 10.6758H68.7342L65.7083 15.0186V10.6758H64.0811V20.1079H65.7083V15.6836L68.6669 20.1079Z" fill="#242626"/>
<path d="M76.006 15.4538C76.006 13.7981 75.1722 13.1738 73.4778 13.1738C72.4154 13.1738 71.5816 13.5131 71.0974 13.7981V15.1417C71.5278 14.816 72.4691 14.4631 73.2895 14.4631C74.056 14.4631 74.4057 14.7345 74.4057 15.4674V15.8474H74.1502C71.7026 15.8474 70.6133 16.6617 70.6133 18.046C70.6133 19.4303 71.4471 20.2038 72.6843 20.2038C73.6257 20.2038 74.0291 19.8917 74.3385 19.566H74.4057C74.4191 19.7424 74.4729 19.9731 74.5267 20.1088H76.0867C76.0329 19.5524 76.006 18.996 76.006 18.4395V15.4538ZM74.4057 18.4803C74.204 18.7788 73.8274 19.0231 73.2626 19.0231C72.5902 19.0231 72.254 18.616 72.254 18.0053C72.254 17.2045 72.8054 16.9195 74.1771 16.9195H74.4057V18.4803Z" fill="#242626"/>
<path d="M78.7723 13.2802H77.293V22.0745H78.8933V19.306C79.2968 19.9167 79.8885 20.2424 80.5743 20.2424C82.1343 20.2424 83.2102 18.9802 83.2102 16.6867C83.2102 14.4067 82.1612 13.1445 80.655 13.1445C79.9019 13.1445 79.2833 13.4974 78.853 14.1624L78.7723 13.2802ZM80.1709 18.9667C79.3237 18.9667 78.8933 18.2745 78.8933 16.7002C78.8933 15.1124 79.3506 14.4202 80.2516 14.4202C81.1257 14.4202 81.5561 15.1124 81.5561 16.6867C81.5561 18.2745 81.0988 18.9667 80.1709 18.9667Z" fill="#242626"/>
<path d="M88.8356 14.557V13.2812H83.4697V14.557H85.3525V20.1077H86.9528V14.557H88.8356Z" fill="#242626"/>
<path d="M89.7822 13.2812V20.1077H92.2164C93.7898 20.1077 94.906 19.2934 94.906 17.692C94.906 16.172 93.9108 15.3713 92.2433 15.3713H91.3826V13.2812H89.7822ZM95.4977 13.2812V20.1077H97.0981V13.2812H95.4977ZM92.1222 18.832H91.3826V16.647H92.1626C92.8484 16.647 93.2519 16.9591 93.2519 17.7463C93.2519 18.5334 92.8081 18.832 92.1222 18.832Z" fill="#242626"/>
<path d="M28.9113 20.1079H27.2841V11.9515H26.5579C25.2265 11.9515 24.5272 12.6301 24.5272 13.6344C24.5272 14.7744 25.0113 15.3036 26.0065 15.9822L26.8269 16.5386L24.46 20.1079H22.6982L24.8231 16.9186C23.5993 16.0365 22.9134 15.1815 22.9134 13.7294C22.9134 11.9108 24.1641 10.6758 26.5444 10.6758H28.9113V20.1079Z" fill="#242626"/>
</svg>