<svg xmlns="http://www.w3.org/2000/svg" width="244" height="37" viewBox="0 0 244 37" fill="none">
<g clip-path="url(#clip0_1316_174557)">
<path d="M4.202 25.957L20.78 29.14L22.068 26.917L7.332 20.55L4.202 25.957ZM11.882 12.69L24.777 22.244L26.065 20.02L15.013 7.282L11.883 12.69H11.882ZM8.03 19.348L22.766 25.717L24.079 23.445L11.184 13.892L8.03 19.348ZM19.227 0L15.747 6.02L26.8 18.76L28.438 15.936L19.227 0ZM0 33.227H18.42L20.057 30.403L3.48 27.22L0 33.227ZM29.231 25.789L33.541 33.227H38.441L29.231 17.305L20.021 33.227H24.921L29.231 25.789Z" fill="#FCAF17"/>
<path d="M68.4288 33.2014H75.4488L77.0618 30.3534H68.4298L68.4288 33.2014ZM68.4288 25.2934V28.1414H78.3388L79.9878 25.2934H68.4288ZM217.213 28.6704V20.2584H214.106V33.2014H216.707L224.183 24.7294V33.2014H227.289V20.2584H224.545L217.213 28.6704ZM86.6938 20.2584L79.2538 33.2014H82.9138L87.8138 24.6564L92.7498 33.2014H96.6028L89.1628 20.2584H86.6938ZM64.3378 30.3524L56.8978 17.3984H54.3578L46.9168 30.3524H45.0508V36.9984H48.0118V33.2004H63.2418V36.9984H66.2038V30.3524H64.3378ZM50.6248 30.3524L55.5248 21.7964L60.4608 30.3524H50.6248ZM165.876 20.2584H151.417V23.1064H164.214L165.876 20.2584ZM82.8768 20.2584H68.4298V23.1064H81.2278L82.8768 20.2584ZM241.254 20.2584L233.922 28.6704V20.2584H230.816V33.2014H233.428L240.893 24.7294V33.2014H243.999V20.2584H241.254ZM207.472 25.2934H200.67V20.2584H197.563V33.2014H200.67V28.1414H207.472V33.2014H210.578V20.2584H207.472V25.2934ZM169.681 20.2584L162.241 33.2014H165.913L170.813 24.6564L175.749 33.2014H179.59L172.149 20.2584H169.681ZM138.98 24.8984H134.261V20.2474H131.155V33.2014H138.956C141.063 33.2014 143.254 32.0364 143.254 28.9834C143.242 24.9704 140.425 24.8984 138.98 24.8984ZM138.8 30.4624H134.249V27.5784H138.8C139.329 27.5784 140.136 27.7224 140.136 29.0204C140.136 30.2214 139.474 30.4624 138.8 30.4624ZM147.902 20.2584H144.832V33.2134H147.902V20.2584ZM104.429 19.9454C99.2388 19.9454 96.7838 23.1184 96.7838 26.6634C96.7838 30.3644 99.1788 33.3804 104.429 33.3804C106.716 33.3804 112.013 32.3234 112.013 26.6634C112.013 22.9624 109.642 19.9454 104.429 19.9454ZM104.393 30.5324C101.395 30.5324 100.131 28.8144 100.131 26.6994C100.131 24.3794 101.575 22.8294 104.393 22.8294C107.571 22.8294 108.654 24.3794 108.654 26.6994C108.654 29.4754 106.572 30.5324 104.393 30.5324ZM151.417 33.2014H158.436L160.061 30.3534H151.417V33.2014ZM151.417 25.2934V28.1414H161.325L162.986 25.2934H151.417ZM183.96 28.5984V20.2584H180.854V33.2014H183.467L190.943 24.8014V33.2014H194.049V20.2584H191.437L183.96 28.5984ZM125.569 25.5704C126.387 25.2214 127.086 24.6574 127.086 23.2504C127.086 20.5704 124.834 20.2584 123.245 20.2584H114.854V33.2134H123.39C127.302 33.2134 128.109 31.0624 128.109 29.0914C128.121 26.8684 126.857 25.9544 125.569 25.5704ZM117.924 22.9984H122.896C123.642 22.9984 123.955 23.3834 123.955 24.1284C123.955 24.8974 123.462 25.2934 122.896 25.2934H117.924V22.9984ZM123.39 30.4614H117.924V27.6854H123.39C124.268 27.6854 124.907 27.9014 124.907 29.0554C124.907 29.9684 124.521 30.4614 123.39 30.4614Z" fill="#252721"/>
</g>
<defs>
<clipPath id="clip0_1316_174557">
<rect width="244" height="37" fill="white"/>
</clipPath>
</defs>
</svg>