<svg xmlns="http://www.w3.org/2000/svg" width="98" height="26" viewBox="0 0 98 26" fill="none">
<path fill-rule="evenodd" clip-rule="evenodd" d="M95.6782 23.1829C95.6782 23.1829 93.5635 23.4309 91.8098 23.4309C90.0562 23.4309 87.8125 23.2325 87.8125 23.2325V16.9837H95.6782V23.1829ZM95.6782 1.83255C95.6782 1.83255 93.8214 1.60938 91.7067 1.60938C89.5919 1.60938 87.8125 1.80776 87.8125 1.80776V8.4038H95.6782V1.83255Z" fill="#E4003C"/>
<path fill-rule="evenodd" clip-rule="evenodd" d="M75.5898 11.8567L85.2351 23.2386H75.3576L68.9103 15.1795H66.0219V23.2386H58.0271V1.81388H66.0219V9.5506H69.0135L75.4351 1.81388H84.6676L75.5898 11.8567ZM27.5182 1.81388H2.34766V23.2386H10.4198V7.8644H19.4719V23.2386H27.5439V1.81388H27.5182ZM31.5671 7.49243C31.5671 7.49243 37.4213 7.12048 40.4388 7.12048C43.4561 7.12048 46.9892 7.49243 46.9892 7.49243C46.9892 7.49243 47.1439 8.38513 47.2729 9.77378H36.9055V15.2292H47.2472C47.1439 16.4194 46.9376 17.5104 46.9376 17.5104C46.9376 17.5104 45.2355 17.8825 40.9288 17.8825C36.6219 17.8825 31.5671 17.5104 31.5671 17.5104L30.4324 23.2139C30.4324 23.2139 37.6535 23.7841 42.6051 23.7841C47.5566 23.7841 52.9723 23.2139 52.9723 23.2139C52.9723 23.2139 54.7519 18.3784 54.7519 12.2535C54.7519 6.12859 52.9723 1.78908 52.9723 1.78908C52.9723 1.78908 47.3245 1.21875 42.6566 1.21875C37.9888 1.21875 30.4324 1.78908 30.4324 1.78908L31.5671 7.49243Z" fill="#252069"/>
</svg>