<svg xmlns="http://www.w3.org/2000/svg" width="84" height="23" viewBox="0 0 84 23" fill="none">
<g clip-path="url(#clip0_1316_174551)">
<mask id="mask0_1316_174551" style="mask-type:luminance" maskUnits="userSpaceOnUse" x="0" y="0" width="84" height="23">
<path d="M84 0H0V22.9533H84V0Z" fill="white"/>
</mask>
<g mask="url(#mask0_1316_174551)">
<path fill-rule="evenodd" clip-rule="evenodd" d="M13.5265 17.0352H9.90432C4.25378 17.0352 8.35886 5.43727 13.1159 5.43727H18.839C19.7565 5.43727 21.3744 5.60064 22.1713 3.40704L23.4028 0H15.5549C11.3049 0 7.99661 1.44683 5.60604 3.87376C1.4768 8.02754 0.076244 14.515 1.0663 17.6186C2.00805 20.4889 4.5677 22.3791 8.57621 22.4258L11.6913 22.4492H15.5307L16.4725 19.7188C17.1728 17.782 15.6032 17.0352 13.5265 17.0352ZM57.62 12.228L58.8031 8.51764H46.174C44.0732 8.51764 43.1314 9.07769 42.7692 10.2445L41.586 13.9549H54.2152C56.316 13.9549 57.2578 13.3948 57.62 12.228ZM39.7025 18.7621L38.5192 22.4725H51.1484C53.2252 22.4725 54.191 21.9124 54.5533 20.7457L55.7365 17.0352H43.1073C41.0306 17.0352 40.0888 17.5953 39.7025 18.7621ZM60.5659 3.73375L61.7495 0.0233356H49.12C47.0192 0.0233356 46.0775 0.583397 45.7153 1.75019L44.532 5.46061H57.1612C59.2382 5.46061 60.1795 4.90055 60.5659 3.73375ZM41.4894 4.4805C40.9581 1.02678 39.0504 0.0233356 34.4141 0.0233356H25.9625L21.0364 13.9549H24.1514C26.0108 13.9549 26.9525 13.9782 27.9425 11.4112L29.9952 5.43727H33.1343C35.8147 5.43727 35.211 8.68101 33.8587 11.8313C32.6514 14.6082 30.5505 17.0586 28.015 17.0586H22.775C20.6742 17.0586 19.7082 17.6186 19.3218 18.7855L18.0179 22.4958H21.8574L25.6244 22.4725C28.9568 22.4492 31.6854 22.2158 34.8729 19.4389C38.2536 16.4752 42.1655 8.86765 41.4894 4.4805ZM83.9414 0H76.6243L69.7422 7.07081C68.9451 7.88751 68.1242 8.70428 67.3271 9.66108H67.2546L70.6834 0H64.7196L56.6783 22.4725H62.6427L65.2021 15.4017L67.8583 13.2314L69.9594 19.6256C70.6113 21.609 71.2875 22.4725 72.7365 22.4725H77.3005L72.6154 9.9178L83.9414 0Z" fill="#00B33C"/>
</g>
</g>
<defs>
<clipPath id="clip0_1316_174551">
<rect width="84" height="23" fill="white"/>
</clipPath>
</defs>
</svg>