<svg xmlns="http://www.w3.org/2000/svg" width="40" height="40" viewBox="0 0 40 40" fill="none">
<g clip-path="url(#clip0_1316_174563)">
<path fill-rule="evenodd" clip-rule="evenodd" d="M18.8463 0.545884C11.7956 3.75178 5.95272 8.01149 0.846117 13.669C0.0972174 14.4987 0.0863174 14.5168 0.125617 14.8649C0.147517 15.0593 0.223717 15.738 0.295017 16.373C1.07642 23.3404 3.50832 30.6216 7.20242 37.0546C7.78752 38.0734 7.58812 37.9614 9.51022 38.3509C16.3413 39.735 23.7326 39.7347 30.5691 38.3501C32.5423 37.9504 32.3208 38.0771 32.9439 36.9919C36.8362 30.2132 39.2532 22.621 39.882 15.1984L39.9396 14.5187L39.567 14.085C34.7726 8.50488 27.8967 3.45588 21.0202 0.465984C19.9501 0.000684425 20.0537 -0.0032156 18.8463 0.545884ZM22.3899 2.71498C28.2315 5.62008 32.5634 8.82899 37.2645 13.7339L38.4502 14.971L38.4004 15.5862C37.8941 21.8412 35.3867 29.744 32.0417 35.6275C31.3698 36.8093 31.5758 36.6663 30.1392 36.9485C23.4394 38.2648 16.8624 38.2623 9.99782 36.941L8.65442 36.6825L8.28652 36.0535C5.03692 30.4986 2.64942 23.3136 1.80782 16.5562C1.58232 14.7458 1.40142 15.1079 3.67102 12.8267C8.16142 8.31308 12.9339 4.91898 18.4751 2.29798C20.1584 1.50178 19.8934 1.47348 22.3899 2.71498ZM19.2174 8.70288C19.2174 8.97168 19.2353 8.99158 19.477 8.99158H19.7365L19.6916 9.96068C19.6354 11.1724 19.3016 12.314 18.9906 12.3582C18.8117 12.3836 18.805 12.4154 18.805 13.2447V14.105H19.2586H19.7122V13.5664V13.0279L20.7638 13.051L21.8153 13.0741L21.7885 13.5895L21.7617 14.105H22.2215H22.6813V13.2857V12.4665L22.4545 12.4404L22.2277 12.4143L22.2025 11.1359C22.1665 9.30688 22.2135 8.99158 22.5223 8.99158C22.7433 8.99158 22.7638 8.96708 22.7638 8.70288V8.41428H20.9906H19.2174V8.70288ZM14.0847 9.23278L13.8153 9.47388L13.8397 10.2976C13.8626 11.0727 13.8531 11.129 13.6781 11.2516C13.4486 11.4123 13.4099 11.3729 13.2455 10.8117C13.0762 10.2336 13.0797 10.1745 13.2871 10.1203C13.4451 10.079 13.461 9.65648 13.3106 9.49298C13.2374 9.41348 11.6298 9.92438 11.6298 10.0272C11.6298 10.3338 11.7848 10.5376 11.9885 10.4987C12.2322 10.4521 12.6402 11.5122 12.4311 11.6487C12.1903 11.8059 11.9971 11.6647 11.7122 11.1236C11.2634 10.2709 10.9149 10.0217 10.3998 10.1852C10.1243 10.2726 10.149 10.8885 10.428 10.8885C10.6736 10.8885 10.8721 11.0776 11.0306 11.4625C11.1845 11.8366 11.452 12.1256 11.6441 12.1256C11.727 12.1256 11.7947 12.1627 11.7947 12.2081C11.7947 12.2534 11.7621 12.2906 11.7222 12.2906C11.5504 12.2906 11.4427 12.8026 11.4954 13.3695C11.5465 13.9194 11.5389 13.9557 11.3313 14.1481L11.1135 14.35L11.3311 14.6353C11.5743 14.9542 11.8613 14.9372 12.1785 14.5852C12.3336 14.413 12.3694 13.5621 12.2495 12.8966C12.1976 12.6088 12.3611 12.373 12.6126 12.373C12.9537 12.373 13.1861 13.7669 12.8463 13.7738C12.76 13.7756 12.7712 14.1213 12.8621 14.2651C13.0148 14.5064 14.6099 13.9741 14.5453 13.7034C14.4695 13.3856 14.4462 13.3627 14.1988 13.3627C13.9914 13.3627 13.9623 13.3206 13.8323 12.8326C13.7546 12.5411 13.6692 12.2457 13.6426 12.1763C13.5761 12.0031 13.9774 11.9038 14.1534 12.0499C14.2248 12.1092 14.4275 12.4445 14.6038 12.7952C14.9678 13.5192 15.1622 13.6926 15.6095 13.6926C15.9424 13.6926 15.9614 13.6695 16.0291 13.1819C16.0696 12.8905 16.0604 12.8764 15.8129 12.852C15.5898 12.8301 15.5129 12.753 15.2532 12.2906C15.0528 11.9337 14.8543 11.6988 14.6596 11.588C14.3871 11.4329 14.3754 11.4103 14.4901 11.2581C14.5825 11.1353 14.604 10.9423 14.5762 10.4822C14.542 9.91418 14.554 9.85608 14.7413 9.68248C14.9412 9.49718 14.9417 9.49258 14.7945 9.24338C14.6083 8.92808 14.4279 8.92538 14.0847 9.23278ZM21.2604 10.7029L21.238 12.3318L20.9954 12.3594C20.862 12.3746 20.5971 12.3637 20.4068 12.3351L20.0608 12.2832L20.2174 11.8709C20.3768 11.4514 20.533 10.2912 20.5356 9.50708L20.537 9.07408H20.9099H21.2827L21.2604 10.7029ZM27.0774 9.31808C26.9649 9.36609 26.8649 9.51448 26.8139 9.70898C26.5911 10.5585 26.5771 10.5084 27.0636 10.5996C27.3581 10.6549 27.3636 10.6509 27.4753 10.2978C27.715 9.54018 28.7504 10.1646 28.7372 11.0588C28.7288 11.625 28.7035 11.6309 27.5767 11.333C27.4306 11.2944 27.3831 11.3373 27.3028 11.5806C27.1757 11.9657 27.2068 12.0008 27.7813 12.1228C28.4916 12.2735 28.5082 12.2912 28.3433 12.723C27.9928 13.6406 26.4912 13.9725 26.6879 13.0889C26.7882 12.6382 26.7733 12.5962 26.4857 12.5196C26.0825 12.4123 26.0177 12.4677 25.9003 13.0212C25.7641 13.6627 25.8005 13.7388 26.371 14.0055C27.0105 14.3044 27.9067 14.3183 28.4381 14.0374C29.5831 13.4323 30.0233 10.7563 29.1272 9.84898C28.7013 9.41778 27.5453 9.11839 27.0774 9.31808ZM16.9126 12.3685C16.6814 12.5998 16.6869 13.0565 16.9237 13.277C17.4701 13.7861 18.3626 13.0629 17.9209 12.4689C17.7012 12.1734 17.1615 12.1197 16.9126 12.3685ZM23.7817 12.5022C23.611 12.6729 23.5799 12.7646 23.6208 12.9764C23.7714 13.7563 24.9081 13.6997 24.9081 12.9123C24.9081 12.3254 24.212 12.0719 23.7817 12.5022ZM4.45452 15.9032C4.52252 15.9454 8.05752 17.4912 12.31 19.3383L20.0418 22.6966L27.8744 19.2917C32.1823 17.419 35.6987 15.8784 35.6885 15.8682C35.6783 15.858 35.1422 15.9389 34.4971 16.0479C31.3638 16.5776 27.3723 17.0904 24.4545 17.3383C23.7257 17.4002 21.9126 17.4434 20.0421 17.4434C16.7512 17.4434 15.8118 17.3912 12.537 17.0266C10.2051 16.7669 5.72152 16.1191 4.55042 15.8727C4.39482 15.84 4.36682 15.8489 4.45452 15.9032ZM14.4476 29.5772C11.3957 33.3248 8.91012 36.402 8.92402 36.4152C8.93802 36.4285 11.4174 34.7563 14.4339 32.6993C17.4504 30.6422 19.9663 28.9571 20.0248 28.9547C20.1118 28.9512 22.6756 30.6769 30.8256 36.2248C31.0184 36.3561 31.1762 36.4454 31.1762 36.4233C31.1762 36.3618 20.1278 22.809 20.0578 22.7847C20.0241 22.7729 17.4995 25.8296 14.4476 29.5772Z" fill="#E6332A"/>
</g>
<defs>
<clipPath id="clip0_1316_174563">
<rect width="40" height="40" fill="white"/>
</clipPath>
</defs>
</svg>