<svg xmlns="http://www.w3.org/2000/svg" width="110" height="28" viewBox="0 0 110 28" fill="none">
<path d="M0.39515 8.86417H9.76586C9.9841 8.86417 10.161 9.04292 10.161 9.26343V11.1253C10.161 11.3733 10.0545 11.6082 9.86907 11.7707L4.6289 16.2H9.76586C9.9841 16.2 10.161 16.3755 10.161 16.596V18.7335C10.161 18.954 9.9841 19.1328 9.76586 19.1328H0.39515C0.176915 19.1328 0 18.954 0 18.7335V16.8747C0 16.6267 0.106513 16.3918 0.291939 16.2293L5.53211 11.8H0.39515C0.176915 11.8 0 11.6172 0 11.3967V9.26343C0 9.04292 0.176915 8.86417 0.39515 8.86417ZM16.6931 8.5C17.7766 8.5 18.7426 8.74619 19.549 9.19608C20.3554 9.64597 21.0023 10.2996 21.4476 11.1144C21.8928 11.9292 22.1365 12.9052 22.1365 14C22.1365 15.0948 21.8928 16.0708 21.4476 16.8856C21.0023 17.7004 20.3554 18.354 19.549 18.8039C18.7426 19.2538 17.7766 19.5 16.6931 19.5C15.6096 19.5 14.6436 19.2538 13.8372 18.8039C13.0307 18.354 12.3839 17.7004 11.9386 16.8856C11.4933 16.0708 11.2497 15.0948 11.2497 14C11.2497 12.9052 11.4933 11.9292 11.9386 11.1144C12.3839 10.2996 13.0307 9.64597 13.8372 9.19608C14.6436 8.74619 15.6096 8.5 16.6931 8.5ZM16.6931 11.4333C16.1748 11.4333 15.7198 11.544 15.3434 11.7496C14.9671 11.9553 14.6695 12.2561 14.4659 12.6363C14.2623 13.0166 14.1528 13.4763 14.1528 14C14.1528 14.5237 14.2623 14.9834 14.4659 15.3637C14.6695 15.7439 14.9671 16.0447 15.3434 16.2504C15.7198 16.456 16.1748 16.5667 16.6931 16.5667C17.2114 16.5667 17.6664 16.456 18.0427 16.2504C18.4191 16.0447 18.7167 15.7439 18.9203 15.3637C19.1239 14.9834 19.2333 14.5237 19.2333 14C19.2333 13.4763 19.1239 13.0166 18.9203 12.6363C18.7167 12.2561 18.4191 11.9553 18.0427 11.7496C17.6664 11.544 17.2114 11.4333 16.6931 11.4333ZM28.3057 8.5C29.3892 8.5 30.3552 8.74619 31.1616 9.19608C31.968 9.64597 32.6149 10.2996 33.0602 11.1144C33.5054 11.9292 33.7491 12.9052 33.7491 14C33.7491 15.0948 33.5054 16.0708 33.0602 16.8856C32.6149 17.7004 31.968 18.354 31.1616 18.8039C30.3552 19.2538 29.3892 19.5 28.3057 19.5C27.2222 19.5 26.2562 19.2538 25.4497 18.8039C24.6433 18.354 23.9965 17.7004 23.5512 16.8856C23.1059 16.0708 22.8623 15.0948 22.8623 14C22.8623 12.9052 23.1059 11.9292 23.5512 11.1144C23.9965 10.2996 24.6433 9.64597 25.4497 9.19608C26.2562 8.74619 27.2222 8.5 28.3057 8.5ZM28.3057 11.4333C27.7874 11.4333 27.3324 11.544 26.956 11.7496C26.5797 11.9553 26.282 12.2561 26.0785 12.6363C25.8749 13.0166 25.7654 13.4763 25.7654 14C25.7654 14.5237 25.8749 14.9834 26.0785 15.3637C26.282 15.7439 26.5797 16.0447 26.956 16.2504C27.3324 16.456 27.7874 16.5667 28.3057 16.5667C28.824 16.5667 29.279 16.456 29.6553 16.2504C30.0317 16.0447 30.3293 15.7439 30.5329 15.3637C30.7364 14.9834 30.8459 14.5237 30.8459 14C30.8459 13.4763 30.7364 13.0166 30.5329 12.6363C30.3293 12.2561 30.0317 11.9553 29.6553 11.7496C29.279 11.544 28.824 11.4333 28.3057 11.4333ZM45 9.2647V18.7334C45 18.9539 44.8231 19.1326 44.6048 19.1326H42.7633C42.5179 19.1326 42.2855 19.025 42.1246 18.8377L37.7409 13.5437V18.7334C37.7409 18.9539 37.56 19.1326 37.3417 19.1326H35.2317C35.0134 19.1326 34.8365 18.9539 34.8365 18.7334V9.2647C34.8365 9.04418 35.0134 8.86542 35.2317 8.86542H37.0732C37.3187 8.86542 37.551 8.97307 37.7119 9.16046L42.0956 14.4563V9.2647C42.0956 9.04418 42.2693 8.86542 42.4875 8.86542H44.6048C44.8231 8.86542 45 9.04418 45 9.2647Z" fill="url(#paint0_linear_8_65716)"/>
<defs>
<linearGradient id="paint0_linear_8_65716" x1="45.9105" y1="14" x2="2.84299e-07" y2="14" gradientUnits="userSpaceOnUse">
<stop stop-color="#6339F5"/>
<stop offset="1" stop-color="#3D3F55"/>
</linearGradient>
</defs>
</svg>